<svg width="56" height="69" viewBox="0 0 56 69" fill="none" xmlns="http://www.w3.org/2000/svg">
<path d="M33.9008 55.3257C33.9262 54.9305 33.9262 54.548 34.1429 54.191C34.2576 54.0125 34.2958 53.7703 34.3341 53.5536C34.3468 53.4643 34.3596 53.3878 34.4105 53.3113C34.4615 53.2221 34.5507 53.1328 34.4743 53.0053C34.4488 52.9543 34.4743 52.9161 34.5252 52.8906C34.6272 52.8524 34.6145 52.7504 34.6399 52.6611C34.7419 52.5081 34.7419 52.3296 34.7164 52.1257C34.5762 52.3169 34.5762 52.4826 34.6399 52.6611C34.589 52.6739 34.538 52.6994 34.4743 52.7121C34.5125 52.3169 34.6272 51.9472 34.6654 51.5647C34.7037 51.3097 34.8056 51.0675 34.7674 50.7997C34.7674 50.7742 34.7674 50.7487 34.7801 50.7232C34.9841 50.2643 34.9331 49.7543 35.0223 49.2826C35.0733 48.9384 35.0605 48.5941 35.0223 48.2372C34.9841 47.8675 35.0095 47.485 35.0095 47.1153C35.0095 47.0388 35.0095 46.9495 35.0095 46.873C35.0223 46.7455 34.9586 46.6945 34.8311 46.6945C34.4233 46.7073 34.0282 46.72 33.6204 46.7455C33.4419 46.7583 33.289 46.8985 33.1361 46.8858C32.9831 46.8858 32.8175 46.7838 32.6518 46.7838C32.6136 46.7838 32.5753 46.7838 32.5498 46.8093C32.2949 47.026 31.9763 47.0133 31.6704 47.0133C31.0714 47.0133 30.4724 46.9623 29.8734 46.8858C29.6695 46.8603 29.4529 46.8348 29.3254 47.0515C29.2617 46.9113 29.1725 46.873 28.9941 46.873C28.8156 46.873 28.6372 46.924 28.4588 46.873C28.4206 46.8603 28.3823 46.873 28.3696 46.9113C28.3313 46.975 28.3823 46.975 28.4333 46.9878C28.4843 47.0005 28.5225 47.0388 28.497 47.0898C28.4843 47.1408 28.4206 47.1408 28.3823 47.1408C28.1402 47.0898 27.8853 47.1663 27.6304 47.1025C27.5029 47.0643 27.3628 47.1408 27.2353 47.1408C26.7 47.1408 26.1775 47.1535 25.6422 47.1535C25.056 47.1535 24.4825 47.1025 23.909 47.077C23.5011 47.0643 23.106 47.179 22.6982 47.1408C22.6217 47.128 22.5325 47.1408 22.4433 47.128C22.2394 47.1153 22.0482 47.077 21.8316 47.1535C21.5894 47.23 21.2963 47.1663 21.0287 47.2555C20.9394 47.281 20.7865 47.2172 20.6591 47.2427C20.3405 47.2937 20.0218 47.3065 19.7032 47.332C19.1934 47.3702 18.6836 47.4212 18.1739 47.3702C17.7533 47.3192 17.3327 47.3575 16.9121 47.3575C16.4151 47.3702 15.9181 47.332 15.4338 47.281C15.1789 47.2555 14.924 47.3192 14.6818 47.3575C14.3632 47.4085 14.0446 47.3447 13.7387 47.3957C13.5476 47.4212 13.3436 47.383 13.178 47.332C12.7319 47.2045 12.2858 47.281 11.8398 47.2555C11.5084 47.23 11.177 47.2427 10.8584 47.2427C10.7565 47.2427 10.6545 47.2427 10.5653 47.281C10.5398 47.2937 10.5016 47.3192 10.4888 47.3065C10.2594 47.179 10.0173 47.2937 9.78788 47.281C9.54573 47.2682 9.29084 47.2937 9.04869 47.281C8.22029 47.2682 7.37914 47.2427 6.55074 47.2427C6.23212 47.2427 5.9135 47.2682 5.59489 47.3192C5.39097 47.3575 5.18706 47.332 5.00863 47.2682C4.88119 47.2172 4.75374 47.2045 4.62629 47.2427C4.0273 47.4085 3.41555 47.3702 2.81655 47.4467C2.5999 47.4722 2.39598 47.4467 2.19207 47.383C1.92443 47.2937 1.66954 47.2682 1.42739 47.4467C1.36366 47.4977 1.32543 47.4467 1.29994 47.3957C1.17249 47.1025 0.994069 46.8475 0.815644 46.5798C0.802899 46.567 0.790155 46.5415 0.790155 46.5415C0.917601 46.3376 0.751921 46.1591 0.726431 45.9678C0.713687 45.8531 0.700942 45.7511 0.790155 45.6619C0.866623 45.5854 0.866622 45.4834 0.853878 45.3559C0.828389 45.1136 0.77741 44.8587 0.981324 44.6547C1.01956 44.6164 1.00681 44.5527 1.00681 44.5017C0.994069 44.3997 0.994069 44.2977 0.994069 44.1957C1.00681 44.0427 1.147 43.9535 1.27445 44.03C1.33817 44.0682 1.44013 44.1065 1.33817 44.2085C1.32543 44.2212 1.31269 44.234 1.31269 44.2595C1.31269 44.336 1.2872 44.4124 1.37641 44.4507C1.46562 44.4889 1.54209 44.3742 1.54209 44.3487C1.46562 44.1447 1.75875 44.183 1.746 44.03C1.746 43.9917 1.80973 44.0045 1.83522 44.03C2.28128 44.3232 2.79106 44.3232 3.28811 44.3232C3.84887 44.3232 4.39689 44.2977 4.95766 44.3105C5.18706 44.3105 5.42921 44.285 5.6841 44.3487C5.50568 44.2085 5.13608 44.1575 4.72825 44.1957C4.741 44.0937 4.81746 44.0682 4.88119 44.081C5.11059 44.1447 5.32725 44.0682 5.54391 44.081C5.60763 44.081 5.6841 44.0682 5.73508 44.0937C5.96448 44.1957 6.20663 44.0937 6.42329 44.1192C6.79289 44.1702 7.13699 44.0555 7.49384 44.081C7.85069 44.1065 8.22029 44.132 8.57714 44.1447C8.87026 44.1447 9.17614 44.1702 9.46926 44.132C9.54573 44.1192 9.64769 44.1065 9.71141 44.132C9.90258 44.2212 10.081 44.1702 10.2722 44.132C10.3996 44.1065 10.5016 44.1447 10.629 44.1447C11.3045 44.1065 11.98 44.1957 12.6554 44.1702C13.025 44.1575 13.3946 44.1702 13.7642 44.1702C14.0318 44.1702 14.325 44.1575 14.5926 44.285C14.6436 44.3105 14.6946 44.3232 14.7455 44.285C14.8985 44.1702 15.0642 44.183 15.2426 44.1957C15.6249 44.2212 16.0073 44.2722 16.3896 44.2212C16.9504 44.132 17.4984 44.2212 18.0592 44.183C18.1101 44.183 18.1866 44.1702 18.2248 44.1957C18.467 44.3487 18.7091 44.2722 18.964 44.2212C19.1807 44.183 19.4101 44.2085 19.6395 44.2212C19.9454 44.234 20.2512 44.2085 20.5571 44.2085C20.9012 44.1957 21.2581 44.183 21.6022 44.1957C21.8061 44.2085 21.9973 44.1702 22.2012 44.183C22.5708 44.1957 22.9404 44.1575 23.31 44.234C23.3864 44.2467 23.4501 44.2085 23.5266 44.1957C23.8835 44.1447 24.2403 44.2085 24.5844 44.1957C24.8648 44.183 25.1324 44.234 25.4256 44.2085C25.6677 44.183 25.9099 44.2085 26.152 44.2212C26.5089 44.2467 26.853 44.2722 27.2098 44.2467C27.452 44.2212 27.6941 44.3105 27.9363 44.285C28.2804 44.2467 28.6372 44.3869 28.9813 44.2595C28.9941 44.2595 29.0196 44.2467 29.0323 44.2595C29.4529 44.4379 29.8862 44.2977 30.3068 44.3232C30.6891 44.3487 31.0969 44.3232 31.492 44.3232C31.9508 44.3105 32.4096 44.3232 32.8684 44.3105C33.391 44.2977 33.9008 44.3614 34.4105 44.3997C34.6017 44.4124 34.7801 44.3487 34.9713 44.4507C35.0478 44.4889 35.086 44.3997 35.0988 44.3232C35.1115 44.1575 35.1242 43.9917 35.1497 43.8387C35.1752 43.5838 35.2007 43.3415 35.2389 43.0865C35.2644 42.9463 35.2389 42.7933 35.2389 42.6531C35.2262 42.3726 35.3027 42.0921 35.2389 41.8244C35.2262 41.7479 35.2389 41.6714 35.2517 41.5821C35.3537 41.0594 35.4301 40.5367 35.5703 40.014C35.5958 39.9375 35.7232 39.7718 35.5066 39.708C35.4556 39.6953 35.5066 39.606 35.5321 39.5678C35.736 39.1088 35.7487 38.6244 35.8379 38.1399C35.8762 37.9359 35.9144 37.7192 36.0419 37.5407C36.1183 37.4387 36.0036 37.3112 36.0673 37.2347C36.1183 37.1582 36.2713 37.2092 36.3222 37.0817C36.3732 36.916 36.5134 36.7885 36.5389 36.61C36.5516 36.5463 36.5771 36.4953 36.6409 36.457C36.6918 36.4188 36.7301 36.355 36.7428 36.304C36.7556 35.998 36.9085 35.7431 37.0232 35.4881C37.1252 35.2586 37.1889 35.0036 37.3291 34.7869C37.482 34.5446 37.4947 34.2514 37.6349 33.9964C37.9153 33.512 38.1702 33.002 38.4379 32.5048C38.4888 32.4028 38.5526 32.3008 38.6545 32.2243C38.7055 32.1861 38.7565 32.1096 38.7692 32.0458C38.8202 31.8673 38.8967 31.7271 39.0114 31.5868C39.0623 31.5359 39.0496 31.4721 39.0368 31.3701C38.1957 32.4793 37.584 33.665 37.0232 34.9271C36.9085 34.6721 36.8958 34.6721 36.9722 34.5064C37.1889 33.9709 37.38 33.4227 37.6859 32.9128C37.8771 32.594 38.0045 32.2371 38.1702 31.9056C38.2084 31.8291 38.2467 31.7398 38.2977 31.6633C38.7055 31.0769 39.1006 30.4904 39.5084 29.9167C39.9035 29.3685 40.2603 28.7948 40.7574 28.3103C41.1525 27.9279 41.5093 27.5199 41.9171 27.1629C42.1211 26.9972 42.325 26.8442 42.5289 26.6784C42.8857 26.3852 43.1789 26.0155 43.5612 25.7478C44.071 25.3908 44.5553 25.0083 45.1033 24.7278C45.6131 24.4728 46.1101 24.1669 46.6327 23.9501C46.9895 23.7971 47.3081 23.5677 47.6777 23.4274C48.4424 23.1342 49.2198 22.8665 50.0227 22.7262C50.3796 22.6625 50.7619 22.637 51.1188 22.535C51.2335 22.4967 51.3482 22.5095 51.4756 22.5095C51.7178 22.5222 51.9472 22.4967 52.1766 22.4457C52.457 22.382 52.7628 22.4075 53.0432 22.3437C53.1324 22.331 53.2089 22.28 53.2981 22.2545C52.9922 22.1398 52.6736 22.2418 52.355 22.229C52.0491 22.2035 51.756 22.3437 51.4247 22.3055C51.4629 22.2928 51.4884 22.2545 51.5139 22.2545C51.858 22.229 52.1766 22.076 52.5334 22.1015C52.7119 21.9613 52.9158 22.0633 53.1069 22.076C53.2089 22.0888 53.2854 22.0888 53.3109 21.974C53.3236 21.9103 53.3618 21.8975 53.4001 21.9103C53.502 21.923 53.5912 21.872 53.6932 21.8593C53.6167 22.0633 53.6167 22.0633 53.7952 22.076C53.8844 22.0888 53.9736 22.0505 54.0755 22.1015C53.9736 22.2035 53.8716 22.1398 53.7824 22.1398C53.7442 22.1398 53.7059 22.1525 53.6932 22.1908C53.6805 22.2418 53.7314 22.2418 53.7569 22.2545C53.8589 22.3055 53.9608 22.229 54.0755 22.2545C54.1775 22.28 54.2795 22.229 54.3177 22.3947C54.3304 22.4712 54.4706 22.5222 54.5598 22.4075C54.5981 22.3565 54.6363 22.331 54.7128 22.2927C54.8275 22.6497 55.1079 22.739 55.4775 22.7517C55.1843 22.7135 55.1334 22.994 54.9422 23.0832C55.0696 23.2234 55.2226 23.0959 55.35 23.1342C55.4902 23.1852 55.5922 23.2999 55.7961 23.2489C55.6176 23.3892 55.4392 23.3509 55.2735 23.3637C54.9932 23.3764 54.9677 23.3892 54.9294 23.6697C54.9039 23.8354 54.9039 24.0011 54.9039 24.1541C54.9039 24.5621 54.8912 24.9701 54.8785 25.378C54.8657 25.6585 54.9039 25.9262 54.9167 26.2067C54.9549 26.9079 54.9549 27.6219 54.9804 28.3231C54.9932 28.5653 54.9549 28.7948 54.9422 29.037C54.9167 29.445 54.9039 29.8657 54.8912 30.2737C54.8785 30.6817 54.8402 31.0896 54.853 31.4976C54.8657 31.8418 54.8147 32.1861 54.8402 32.5303C54.8657 32.8108 54.7892 33.104 54.802 33.3972C54.802 33.5885 54.802 33.7797 54.7765 33.9709C54.7383 34.2514 54.7892 34.5319 54.802 34.8124C54.8147 34.9144 54.8147 35.0291 54.7765 35.1056C54.6745 35.3478 54.7128 35.5901 54.7255 35.8323C54.751 36.2148 54.751 36.5972 54.751 36.9797C54.7765 37.7192 54.7765 38.4714 54.7892 39.2108C54.7892 39.8865 54.8275 40.575 54.6745 41.2379C54.751 41.5184 54.7 41.7989 54.7383 42.0794C54.7765 42.3343 54.7255 42.6148 54.8147 42.8698C54.8275 42.8953 54.8147 42.9335 54.802 42.9463C54.5471 43.2905 54.6618 43.6857 54.649 44.0555C54.6363 44.5782 54.6873 45.0881 54.6618 45.6109C54.6491 45.8276 54.5598 46.0316 54.5343 46.2483C54.5216 46.3376 54.4961 46.4268 54.4961 46.516C54.5089 46.6818 54.4451 46.8093 54.3687 46.9495C54.254 47.1917 54.1393 47.4467 54.1138 47.7272C54.0883 48.0714 53.9608 48.3902 53.9354 48.7471C53.8461 48.7089 53.8589 48.6579 53.8589 48.6069C53.8589 48.2754 53.8461 47.9567 53.7059 47.6507C53.6677 47.5615 53.6932 47.485 53.7059 47.4085C53.7187 47.1662 53.6167 46.924 53.6677 46.6818C53.6805 46.618 53.6422 46.5543 53.5658 46.5543C53.4765 46.5543 53.4638 46.618 53.4511 46.6818C53.4001 46.975 53.4128 47.2682 53.4001 47.5487C53.3873 47.9439 53.3873 48.3519 53.4256 48.7471C53.4383 48.8491 53.4128 48.9511 53.3873 49.0404C53.3364 48.9001 53.3491 48.7471 53.3618 48.6069C53.3746 48.4284 53.2599 48.3647 53.1834 48.2627C53.1579 48.2244 53.0942 48.2244 53.056 48.2372C53.005 48.2627 52.9922 48.3137 53.0177 48.3519C53.0942 48.4922 53.0305 48.5814 52.9285 48.6579C52.8775 48.6961 52.8521 48.7344 52.8521 48.7981C52.8393 49.0404 52.7883 49.2826 52.8393 49.5376C52.8775 49.7671 52.903 50.022 52.7756 50.2515C52.7246 50.1368 52.6864 50.022 52.6864 49.8691C52.3678 50.0475 52.6609 50.328 52.4825 50.532C52.406 50.3535 52.4315 50.175 52.4187 50.0093C52.406 49.7798 52.3932 49.5503 52.3423 49.3336C52.304 49.1806 52.3168 49.0276 52.3168 48.8746C52.3168 48.4667 52.3295 48.0587 52.2913 47.6635C52.2785 47.5487 52.304 47.4085 52.1766 47.3192C52.0746 47.4085 52.1766 47.5105 52.1384 47.5997C51.8962 47.434 51.8962 47.4212 51.8707 47.1025C51.8452 46.771 51.858 46.4396 51.7942 46.1336C51.7305 45.8403 51.705 45.5599 51.705 45.2666C51.705 45.0499 51.756 44.8204 51.7433 44.6037C51.7305 44.4889 51.756 44.3742 51.7305 44.2467C51.705 44.081 51.6923 43.928 51.7433 43.7622C51.7688 43.673 51.7942 43.571 51.7305 43.469C51.6923 43.418 51.705 43.367 51.705 43.316C51.7178 42.9335 51.7178 42.5511 51.7305 42.1686C51.7433 41.9391 51.705 41.7096 51.7178 41.4801C51.7305 41.2762 51.7178 41.0594 51.7688 40.8554C51.7942 40.7662 51.807 40.6642 51.7688 40.5877C51.6795 40.3965 51.7178 40.2052 51.7433 40.0268C51.807 39.5423 51.7942 39.0578 51.7305 38.5861C51.7178 38.4459 51.7433 38.3184 51.7433 38.1781C51.7433 37.9486 51.6413 37.7447 51.6795 37.5152C51.705 37.3367 51.6795 37.1582 51.7305 36.9797C51.807 36.6865 51.7178 36.3805 51.6541 36.1C51.6413 36.049 51.6413 36.0363 51.6541 35.9853C51.705 35.8323 51.756 35.6666 51.7178 35.5008C51.6541 35.2458 51.7305 34.9909 51.7305 34.7359C51.7433 34.3024 51.6668 33.8689 51.6541 33.4355C51.6413 33.1805 51.6286 32.9128 51.6413 32.6578C51.6795 32.0203 51.6668 31.3829 51.6668 30.7454C51.6668 30.3119 51.7178 29.8785 51.6923 29.445C51.6795 29.2538 51.807 29.0753 51.756 28.884C51.6795 28.5653 51.7433 28.2338 51.7178 27.9151C51.705 27.8131 51.6923 27.6856 51.756 27.5964C51.807 27.5199 51.7942 27.4306 51.7942 27.3541C51.7942 27.0227 51.756 26.7039 51.756 26.3725C51.756 26.2322 51.6795 26.2067 51.5903 26.1685C51.5903 26.041 51.756 26.1302 51.756 26.0155C51.7178 25.9517 51.6541 25.939 51.5903 25.9517C51.2462 26.0282 50.8894 26.041 50.5325 26.041C50.4561 26.041 50.3669 26.041 50.2904 26.0665C50.1629 26.1175 50.0355 26.1685 49.8953 26.2067C49.908 26.3087 49.9973 26.245 50.0355 26.296C49.3218 26.3852 48.6591 26.5764 47.9963 26.8442C47.6013 27.0099 47.2317 27.2267 46.8238 27.3286C46.5435 27.4051 46.3141 27.5836 46.0337 27.6601C45.8425 27.6984 45.6896 27.8896 45.5239 28.0171C45.3582 28.1318 45.2053 28.2593 44.9886 28.2593C44.9249 28.2593 44.8484 28.2976 44.7974 28.3613C44.7592 28.3996 44.721 28.4506 44.6827 28.4761C44.4406 28.5781 44.2877 28.782 44.0965 28.9478C43.6887 29.292 43.37 29.7 43.0259 30.108C42.9112 30.2354 42.8857 30.4267 42.7838 30.5669C42.6563 30.7454 42.4652 30.8346 42.3632 31.0259C42.2867 31.1534 42.2613 31.2936 42.1338 31.3956C41.9809 31.5104 41.8917 31.6378 41.8789 31.8418C41.8662 31.9693 41.777 32.0841 41.6877 32.1988C41.624 32.288 41.5476 32.3645 41.5603 32.492C41.573 32.6323 41.4074 32.6323 41.3564 32.7598C41.2672 33.002 41.2289 33.257 41.0887 33.4737C41.0378 33.5375 41.025 33.5885 40.9358 33.563C40.8593 33.5375 40.7956 33.5885 40.8593 33.665C40.9358 33.7542 40.8848 33.7924 40.8338 33.8434C40.6172 34.0729 40.4897 34.3534 40.3496 34.6211C40.1584 34.9654 39.9417 35.3096 39.7888 35.6793C39.7123 35.8833 39.5849 36.0745 39.5339 36.2785C39.4957 36.4188 39.381 36.4825 39.3427 36.6227C39.2025 37.1072 39.1006 37.6172 38.9349 38.1016C38.9094 38.1654 38.9094 38.2419 38.8457 38.2929C38.8202 38.3184 38.7692 38.3311 38.7947 38.3694C38.8457 38.5096 38.7437 38.6626 38.782 38.7646C38.8457 38.9303 38.6673 38.9813 38.6673 39.1216C38.6673 39.3128 38.5016 39.504 38.5526 39.7208C38.3359 39.861 38.4888 40.0395 38.4761 40.2052C38.4633 40.3455 38.4888 40.524 38.3741 40.6387C38.3359 40.6897 38.3741 40.7152 38.3741 40.7407C38.3741 40.8937 38.3741 41.0467 38.2339 41.1359C38.1702 41.1742 38.183 41.2124 38.2085 41.2507C38.3486 41.4292 38.3359 41.6076 38.2849 41.8371C38.2339 42.0666 38.2722 42.3343 38.1957 42.5638C38.1447 42.7423 38.1957 42.908 38.2085 43.0738C38.2339 43.316 38.2722 43.5838 38.132 43.8132C38.0683 43.9152 38.0555 44.0427 38.0683 44.1575C38.1192 44.4507 38.0173 44.7567 38.1702 45.0371C38.0428 45.2156 38.183 45.2029 38.2977 45.2411C38.4888 45.3049 38.68 45.3559 38.8839 45.3304C38.9094 45.3304 38.9476 45.3176 38.9604 45.3304C39.0878 45.5089 39.2917 45.4451 39.4702 45.5089C39.3937 45.5854 39.2917 45.5344 39.177 45.5726C39.4319 45.6746 39.6613 45.6236 39.8653 45.6109C40.0819 45.6109 40.2986 45.6491 40.5025 45.5599C40.3878 45.6619 40.2731 45.7129 40.1201 45.7383C39.8143 45.7766 39.5084 45.8913 39.1898 45.8658C39.1133 45.8531 39.1261 45.9551 39.0751 45.9678C39.0241 45.9806 38.9986 45.9168 38.9476 45.9423C39.0623 46.2101 39.2153 46.2483 39.4574 46.0826C39.5849 45.9933 39.6996 45.9423 39.878 45.9806C40.1839 46.0443 40.5152 45.9806 40.8338 45.9806C41.127 45.9806 41.4328 45.8786 41.726 46.0188C41.8279 46.0698 41.9681 46.0443 42.1211 46.0698C41.6877 46.1208 41.2927 46.1973 40.8848 46.2228C40.1711 46.2738 39.4574 46.4013 38.7437 46.3503C38.578 46.3376 38.4251 46.4013 38.2594 46.3631C38.132 46.3376 38.0683 46.4268 38.0683 46.567C38.0555 47.0005 38.03 47.4212 38.03 47.8547C38.03 48.0332 37.9536 48.1989 37.9918 48.3902C38.0045 48.4412 37.9918 48.5177 37.9153 48.5559C37.8771 48.5814 37.8643 48.6069 37.8898 48.6451C38.03 48.8619 37.9408 49.0914 37.9026 49.3081C37.8771 49.4866 37.9408 49.7161 37.7369 49.8563C37.7242 49.8691 37.7242 49.9201 37.7369 49.9328C37.9408 50.1113 37.7624 50.2898 37.7242 50.4555C37.6604 50.7105 37.6349 50.9527 37.6222 51.2077C37.6095 51.4117 37.5075 51.5902 37.482 51.7942C37.38 52.4444 37.1889 53.0946 37.1252 53.7575C37.1252 53.8085 37.0997 53.8595 37.0614 53.9105C36.9977 53.987 36.9595 54.0635 36.9467 54.1528C36.8575 54.6372 36.6154 55.0707 36.4369 55.5169C36.3605 55.7082 36.2585 55.9121 36.2585 56.1416C36.2585 56.4348 36.1311 56.7026 35.9781 56.9321C35.736 57.3018 35.5958 57.7225 35.4046 58.105C35.2135 58.4747 34.9713 58.8062 34.7419 59.1504C34.4615 59.5584 34.1302 59.9409 33.8753 60.3616C33.5694 60.8715 33.1871 61.3178 32.7665 61.7385C32.4861 62.0317 32.244 62.3632 31.9126 62.6182C31.7469 62.7457 31.6067 62.9114 31.441 63.0134C31.1479 63.1919 30.9185 63.4341 30.6764 63.6636C30.5999 63.7401 30.4979 63.7528 30.4087 63.8038C30.1921 63.9441 30.0391 64.1481 29.8097 64.2628C29.7587 64.2883 29.746 64.352 29.7205 64.403C29.6313 64.5815 29.5166 64.7218 29.2999 64.7218C29.2745 64.7218 29.2617 64.709 29.249 64.7345C29.1725 64.964 28.9431 64.9513 28.7774 65.0405C28.6117 65.1425 28.4333 65.2445 28.2804 65.372C28.1274 65.4995 27.949 65.6015 27.7833 65.7162C27.5539 65.8564 27.2863 65.9329 27.0569 66.0604C26.4834 66.3537 25.8589 66.4939 25.2854 66.7616C24.5717 67.0803 23.8325 67.3353 23.0806 67.5521C22.6345 67.6796 22.1884 67.8325 21.7424 67.9473C21.1306 68.1003 20.5061 68.2023 19.8944 68.3043C19.3719 68.3935 18.8493 68.4445 18.3268 68.5083C18.1101 68.5338 17.8935 68.5593 17.6768 68.5083C17.6386 68.4955 17.5749 68.4955 17.5366 68.5083C17.167 68.7122 16.7465 68.5465 16.3641 68.6612C16.2112 68.6995 16.0328 68.7377 15.9053 68.5592C15.8798 68.521 15.7651 68.5337 15.7779 68.5847C15.8034 68.776 15.6632 68.725 15.5867 68.725C15.37 68.7377 15.1534 68.7505 14.924 68.7887C14.9622 68.725 14.975 68.6357 15.0769 68.6485C15.1661 68.6612 15.2426 68.6485 15.3063 68.5592C15.2044 68.4827 15.1024 68.521 15.0132 68.5592C14.873 68.623 14.7328 68.6612 14.5799 68.5592C14.4907 68.5082 14.376 68.5082 14.2613 68.5465C14.1593 68.5847 14.0701 68.5592 13.9936 68.419C14.1593 68.4318 14.2613 68.3425 14.376 68.2788C14.5544 68.1768 14.7583 68.1258 14.975 68.1003C15.2298 68.062 15.4338 67.9473 15.6632 67.858C15.7014 67.8453 15.7269 67.8198 15.7141 67.7815C15.7014 67.6923 15.7014 67.6796 15.7651 67.6923C15.969 67.7178 16.122 67.5648 16.3004 67.5138C16.2494 67.4118 16.1602 67.3991 16.071 67.3736C15.9053 67.3226 15.8543 67.2078 15.9435 67.0676C15.9945 66.9911 16.0582 66.9146 16.1602 66.8764C16.3514 66.8126 16.5425 66.7744 16.67 66.5831C16.7082 66.5194 16.8102 66.5449 16.8739 66.5449C17.1543 66.5704 17.3455 66.3409 17.6131 66.3154C17.6258 66.3154 17.6513 66.2899 17.6513 66.2772C17.6768 65.9712 17.9445 66.0222 18.1229 65.9967C18.7601 65.9074 19.4101 65.8437 20.0473 65.7672C20.2003 65.7417 20.3787 65.7417 20.4934 65.6015C20.5189 65.576 20.5826 65.5505 20.6208 65.5632C20.8375 65.6014 21.0414 65.4612 21.2581 65.474C21.3218 65.474 21.411 65.4612 21.462 65.4102C21.5384 65.3337 21.6404 65.321 21.7424 65.3337C21.7806 65.3337 21.8316 65.3465 21.8443 65.3337C22.0355 65.1935 22.2776 65.2317 22.4688 65.117C22.7874 64.913 23.1825 64.913 23.5139 64.7473C23.8452 64.5815 24.2148 64.4923 24.5207 64.2883C24.6481 64.2118 24.7883 64.1736 24.9158 64.1098C25.1324 64.0206 25.2599 63.8166 25.4765 63.7146C25.5912 63.6636 25.6932 63.5616 25.8461 63.5871C25.8716 63.5871 25.9226 63.5743 25.9226 63.5616C25.9736 63.3194 26.2667 63.3959 26.3687 63.2301C26.4069 63.1664 26.5089 63.2301 26.5344 63.2174C26.7383 63.1281 26.9677 63.0644 27.0951 62.8349C27.1716 62.7074 27.3373 62.6309 27.4775 62.5544C28.0382 62.2229 28.6117 61.9042 29.1597 61.5472C29.5039 61.3178 29.8352 61.05 30.1283 60.7568C30.2303 60.6548 30.3705 60.5911 30.4852 60.5146C30.5107 60.4891 30.5617 60.4763 30.5872 60.4763C30.9185 60.6421 31.0587 60.3361 31.1734 60.1831C31.5812 59.6731 32.0783 59.2524 32.4351 58.7169C32.69 58.3345 32.9959 57.9775 33.238 57.5823C33.3527 57.4038 33.4674 57.2253 33.5949 57.0723C33.9008 56.7026 34.0664 56.2564 34.2194 55.8101C34.2576 55.7081 34.2831 55.5807 34.2194 55.4659C34.0792 55.5424 34.0537 55.6572 34.0537 55.7974C34.0537 55.8866 33.99 56.0141 33.9517 56.0014C33.8753 55.9631 33.7223 56.0141 33.6968 55.8866C33.6586 55.7336 33.6204 55.7719 33.5439 55.8611C33.5057 55.9121 33.4674 55.9504 33.4165 55.8994C33.3527 55.8356 33.3655 55.7846 33.4419 55.7209C33.6459 55.5552 33.7733 55.4277 33.9008 55.3257C33.8753 55.4022 33.837 55.4659 33.8115 55.5424C33.7988 55.5679 33.8243 55.5934 33.8498 55.5934C33.8753 55.6062 33.9008 55.5807 33.9135 55.5552C33.939 55.4787 33.888 55.4022 33.9008 55.3257ZM32.04 59.8134C32.4351 59.5201 32.7028 59.1122 33.0214 58.7297C33.238 58.4747 33.4165 58.1687 33.6459 57.9137C33.7861 57.7608 33.8753 57.544 33.9645 57.3528C34.0155 57.2508 34.0027 57.1233 33.9645 56.9576C33.8498 57.1488 33.6459 57.2508 33.6076 57.4038C33.5057 57.748 33.2508 58.003 33.1233 58.3345C33.0469 58.513 32.9194 58.6914 32.7282 58.8189C32.4734 58.9719 32.3969 59.2906 32.1547 59.4564C32.142 59.4691 32.142 59.5074 32.142 59.5329L32.1547 59.5201C31.9253 59.6604 31.7214 59.8134 31.6195 60.0811C31.8744 60.1193 31.9891 60.0938 32.0018 59.8644C32.0146 59.8389 32.0273 59.8261 32.04 59.8134ZM40.2094 30.8729C40.2094 30.7709 40.2603 30.6817 40.3368 30.6052C40.4643 30.4904 40.4897 30.2864 40.6682 30.2099C40.7319 29.8912 41.0505 29.7765 41.2289 29.5342C41.3564 29.3685 41.5475 29.241 41.675 29.0625C41.8279 28.8585 42.0064 28.6673 42.223 28.5016C42.274 28.4633 42.325 28.4123 42.274 28.3358C42.172 28.3613 42.0828 28.4378 42.0064 28.5143C41.7387 28.8203 41.4456 29.1008 41.127 29.3558C41.025 29.445 40.9103 29.5215 40.8848 29.6872C40.8721 29.7637 40.8084 29.853 40.7191 29.8912C40.5662 29.9677 40.4897 30.1207 40.3878 30.2482C40.1584 30.5287 40.0309 30.8856 39.6996 31.0769C39.6613 31.1024 39.6613 31.1406 39.6741 31.1789C39.6996 31.2171 39.7123 31.2554 39.6741 31.2936C39.4957 31.4594 39.4192 31.6888 39.2917 31.8928C39.1388 32.1223 38.9349 32.3263 38.8839 32.594C38.8329 32.8363 38.7055 33.0275 38.5908 33.2315C38.5526 33.2952 38.5016 33.3462 38.4761 33.4227C38.2084 34.1112 37.8134 34.7359 37.5712 35.4371C37.4947 35.6666 37.4183 35.896 37.3546 36.1255C37.3546 36.1383 37.3673 36.1893 37.38 36.1893C37.3928 36.202 37.4438 36.1893 37.4565 36.1765C37.4948 36.151 37.533 36.1128 37.533 36.0618C37.584 35.7941 37.7496 35.5518 37.8134 35.2841C37.8771 35.0419 37.9918 34.7996 38.0937 34.5829C38.2977 34.1749 38.4761 33.7542 38.6927 33.3462C38.7437 33.2442 38.7692 33.1422 38.8329 33.053C39.0114 32.8108 39.1643 32.5685 39.228 32.2753C39.2408 32.237 39.2535 32.1733 39.279 32.1606C39.4192 32.1096 39.4829 31.9821 39.5466 31.8673C39.6104 31.7526 39.7378 31.7781 39.827 31.7271C39.9545 31.6378 39.7378 31.4976 39.878 31.4084C39.9672 31.3446 39.9927 31.2299 40.0309 31.1406C40.1584 31.0896 40.2349 31.0131 40.2094 30.8729ZM34.7037 55.4277C34.5507 55.4914 34.538 55.5679 34.5125 55.6189C34.3851 55.8611 34.3596 56.1416 34.1684 56.3456C34.1047 56.4093 34.1302 56.4986 34.1684 56.5878C34.3978 56.2564 34.538 55.8739 34.7037 55.4277ZM31.6577 60.2596C31.4793 60.2086 31.4028 60.3488 31.2881 60.3871C31.2499 60.3998 31.2499 60.4381 31.2626 60.4763C31.2754 60.5018 31.3009 60.5018 31.3391 60.5018C31.4793 60.4763 31.5557 60.3871 31.6577 60.2596ZM54.0628 22.331C54.0246 22.3437 53.9863 22.3437 53.9863 22.382C53.9863 22.433 54.0246 22.4202 54.0628 22.4202C54.101 22.4202 54.1393 22.4202 54.1393 22.3692C54.1393 22.331 54.101 22.3182 54.0628 22.331ZM34.1174 56.7408C34.0919 56.7408 34.0664 56.7536 34.0537 56.7791C34.041 56.8046 34.0282 56.8301 34.0664 56.8428C34.0919 56.8556 34.1174 56.8301 34.1302 56.8046C34.1429 56.7791 34.1429 56.7536 34.1174 56.7408Z" fill="#222222"/>
<path d="M18.1484 16.6576C18.0464 16.8616 18.0337 17.0784 18.0337 17.2951C18.0464 17.5883 17.9827 17.8688 18.0209 18.162C18.0209 18.2003 18.0209 18.2895 17.9317 18.264C17.8807 18.2513 17.8425 18.213 17.8425 18.1493C17.8552 17.7541 17.8043 17.3588 17.8807 16.9636C17.919 16.7851 17.868 16.5939 17.8552 16.4154C17.817 15.8672 17.8425 15.319 17.8043 14.7835C17.7533 14.0058 17.7915 13.2154 17.7915 12.4377C17.7915 11.8767 17.7405 11.3158 17.766 10.7421C17.8043 9.77313 17.7533 8.8042 17.7533 7.83527C17.7533 7.27431 17.7278 6.71335 17.7405 6.15239C17.766 5.11971 17.766 4.07428 17.7915 3.04161C17.7915 2.91412 17.8425 2.76113 17.6641 2.69738C17.6258 2.68463 17.6131 2.60814 17.6386 2.56989C17.7405 2.3659 17.6896 2.23841 17.4856 2.13642C17.3964 2.08542 17.4347 2.02168 17.5239 1.95793C17.6513 1.86869 17.7788 1.84319 17.919 1.85594C17.9954 1.70295 17.868 1.57546 17.919 1.42247C18.1611 1.52446 18.416 1.57546 18.6709 1.60096C18.8366 1.61371 19.015 1.65195 19.1679 1.57546C19.2189 1.54996 19.2826 1.53721 19.3336 1.54996C19.6013 1.60096 19.8816 1.51171 20.1493 1.49897C20.3532 1.48622 20.5826 1.52446 20.7865 1.46072C20.8375 1.44797 20.9012 1.44797 20.9394 1.48622C20.9777 1.51171 21.0159 1.53721 21.0669 1.52446C21.36 1.44797 21.6404 1.61371 21.9335 1.58821C22.2267 1.54996 22.5325 1.61371 22.8384 1.62646C23.2335 1.63921 23.6413 1.67745 24.0364 1.6647C24.3168 1.65195 24.5972 1.67745 24.8775 1.63921C24.8903 1.63921 24.9158 1.63921 24.9285 1.63921C25.1707 1.7667 25.4001 1.63921 25.6422 1.63921C25.8844 1.63921 26.1393 1.61371 26.3814 1.61371C26.6236 1.60096 26.8785 1.60096 27.1206 1.58821C27.3628 1.57546 27.6049 1.58821 27.847 1.49897C27.9872 1.44797 28.1784 1.46072 28.3441 1.47347C28.6372 1.49897 28.9176 1.46072 29.2107 1.46072C29.2617 1.46072 29.3254 1.43522 29.3382 1.46072C29.5039 1.7412 29.7205 1.46072 29.9117 1.51171C29.9372 1.52446 30.0009 1.49897 30.0009 1.47347C30.0646 1.26948 30.2303 1.35873 30.3705 1.34598C31.2499 1.24398 32.1165 1.44797 32.9959 1.43522C34.0155 1.42247 35.0223 1.42247 36.0419 1.40972C36.1948 1.40972 36.3477 1.35873 36.4879 1.29498C36.5771 1.25673 36.6026 1.19299 36.6154 1.05275C36.6791 1.34598 36.7046 1.37147 36.9085 1.30773C37.0614 1.26948 37.2144 1.25673 37.3673 1.23123C37.431 1.21848 37.533 1.21849 37.533 1.15474C37.533 0.938005 37.7751 0.848761 37.7751 0.644775C37.8134 0.657524 37.8389 0.657525 37.8389 0.657525C37.8134 0.989001 38.081 1.21848 38.1575 1.52446C38.2339 1.39697 38.1957 1.25673 38.2085 1.11649C38.2212 1.00175 38.1575 0.874259 38.3359 0.836012C38.3996 0.823263 38.3486 0.734019 38.3869 0.657525C38.3869 1.0145 38.5398 1.33323 38.4251 1.6647C38.4124 1.6902 38.4251 1.7667 38.4379 1.7667C38.6673 1.81769 38.5398 1.98343 38.5271 2.08542C38.4888 2.53164 38.5016 2.97786 38.5143 3.42408C38.5398 4.08703 38.4888 4.74999 38.3614 5.41294C38.3104 5.68067 38.2722 5.9484 38.1702 6.20338C38.0683 6.48386 37.979 6.78984 38.0173 7.10857C38.0428 7.33805 37.9153 7.54204 37.8771 7.77152C37.8134 8.16675 37.7496 8.56197 37.6732 8.95719C37.6349 9.14843 37.5585 9.31417 37.5075 9.5054C37.4565 9.74763 37.3546 9.98987 37.2653 10.2194C37.2399 10.2831 37.2526 10.3468 37.2016 10.3978C36.9722 10.6273 36.934 10.9461 36.8575 11.252C36.832 11.354 36.8193 11.456 36.7683 11.5325C36.5134 11.9022 36.4242 12.3485 36.2968 12.7692C36.284 12.7947 36.284 12.8329 36.2713 12.8457C36.0291 12.9732 36.0673 13.2664 35.9144 13.4576C35.787 13.5979 35.7487 13.8146 35.7105 13.9803C35.6085 14.554 35.3027 15.0258 35.0733 15.5485C34.8311 16.0839 34.538 16.5939 34.1684 17.0529C33.99 17.2824 33.7733 17.4736 33.5439 17.6521C33.34 17.8178 33.2125 18.06 33.0724 18.2895C33.0214 18.3788 32.9704 18.4553 32.8939 18.519C32.6645 18.6975 32.4606 18.9142 32.2567 19.131C32.2185 19.1692 32.1675 19.2075 32.1293 19.2202C32.0018 19.2457 31.9253 19.2967 31.9381 19.437C31.9381 19.4879 31.9253 19.5389 31.8744 19.5517C31.5175 19.6409 31.3263 19.9214 31.0969 20.1637C31.0205 20.2401 30.944 20.3039 30.842 20.3549C30.6636 20.4441 30.5107 20.5589 30.3832 20.7246C30.243 20.9158 30.2048 21.1708 29.9754 21.3111C29.9117 21.3493 29.8734 21.4386 29.9499 21.5406C30.6636 21.1198 31.2626 20.5589 31.8744 20.0107C31.8361 20.1637 31.7342 20.2784 31.6195 20.3676C31.4665 20.4696 31.3518 20.6099 31.2116 20.7246C30.8548 21.0178 30.5872 21.4003 30.2813 21.7318C30.1666 21.8593 30.0264 21.9868 29.9117 22.1143C29.4529 22.5732 28.9049 22.892 28.3823 23.2617C27.7069 23.7334 26.9804 24.0904 26.2157 24.3964C25.8207 24.5493 25.4893 24.7788 25.1452 25.0083C25.0687 25.0593 25.005 25.1485 24.954 24.9828C24.9158 24.8553 24.8138 24.9446 24.7501 24.9701C24.4697 25.0848 24.1893 25.1868 23.909 25.276C23.3482 25.4545 22.7874 25.5948 22.2139 25.7223C21.908 25.786 21.6277 25.939 21.3218 25.9772C20.7993 26.041 20.2767 26.1557 19.7542 26.1685C19.4866 26.1812 19.2189 26.2322 18.9513 26.2705C18.8748 26.2832 18.8111 26.2832 18.7346 26.2832C18.518 26.2832 18.518 26.2832 18.3778 26.449C18.1356 26.2195 18.1101 26.2195 17.8552 26.4362C17.8043 26.4745 17.766 26.5 17.7151 26.4362C17.6258 26.3342 17.4729 26.3342 17.3837 26.3597C17.0906 26.449 16.7974 26.398 16.5171 26.449C16.3769 26.4745 16.2367 26.5 16.0965 26.551C15.8543 26.6402 15.5867 26.6529 15.3191 26.6274C14.873 26.6019 14.4269 26.6147 13.9809 26.6019C13.5093 26.5892 13.0378 26.7167 12.5662 26.5892C12.4005 26.551 12.2221 26.6274 12.0564 26.6147C11.4447 26.5764 10.8329 26.5382 10.2212 26.5382C9.83886 26.5382 9.44377 26.5637 9.06143 26.5382C8.84477 26.5255 8.62812 26.4872 8.41146 26.5C8.20754 26.5127 8.00363 26.5255 7.78697 26.5127C7.40463 26.4872 7.03503 26.5255 6.66544 26.5255C6.23212 26.5255 5.7988 26.5892 5.37823 26.6147C5.05961 26.6402 4.72825 26.6274 4.40964 26.6274C4.23121 26.6274 4.06553 26.6402 3.8871 26.6657C3.55574 26.7167 3.23713 26.6402 2.90577 26.6274C2.89302 26.6274 2.86753 26.6019 2.85479 26.6019C2.49794 26.7932 2.07736 26.5 1.746 26.7677C1.72051 26.7804 1.70777 26.8187 1.68228 26.7804C1.49111 26.551 1.18524 26.6529 0.96858 26.5255C0.853878 26.4617 0.764665 26.4107 0.841133 26.2577C0.866622 26.2067 0.879367 26.1302 0.815644 26.0792C0.624474 25.939 0.675453 25.7478 0.700942 25.5693C0.700942 25.5438 0.726431 25.5183 0.726431 25.4928C0.726431 25.1995 0.802899 24.9063 0.892112 24.6258C0.904856 24.5748 0.94309 24.5238 0.892112 24.4728C0.841133 24.4346 0.790155 24.3964 0.77741 24.3326C0.751921 24.2306 0.726431 24.1286 0.649963 24.0139C0.77741 23.9884 0.879367 24.0394 0.955835 23.9374C1.0323 23.8481 0.955835 23.7334 1.01956 23.6569C1.08328 23.6442 1.04505 23.6952 1.05779 23.7207C1.09603 23.7844 1.05779 23.9119 1.19798 23.8609C1.29994 23.8226 1.33817 23.6952 1.27445 23.6442C1.13426 23.5039 1.19798 23.3382 1.17249 23.1852C1.15975 23.0704 1.22347 23.0449 1.31269 23.0322C1.37641 23.0322 1.44013 23.0194 1.50386 23.0322C2.02639 23.1087 2.56166 23.0704 3.08419 23.1087C3.44104 23.1342 3.79789 23.1087 4.16749 23.1342C4.3714 23.1469 4.58806 23.1469 4.79198 23.0959C4.94491 23.0577 5.11059 23.1087 5.27627 23.0832C5.4547 23.0577 5.65861 23.0449 5.83704 23.0959C6.07918 23.1597 6.30859 23.1214 6.55074 23.1469C6.62721 23.1597 6.70367 23.1597 6.75465 23.1979C6.83112 23.2617 6.89484 23.2999 6.98406 23.1979C7.02229 23.1469 7.1115 23.1469 7.13699 23.1724C7.3664 23.3764 7.64678 23.2107 7.88893 23.3127C7.99088 23.3509 8.05461 23.3127 8.13107 23.2362C8.24578 23.1087 8.38597 23.0959 8.52616 23.1724C8.6536 23.2362 8.78105 23.2617 8.89575 23.2107C9.0232 23.1469 9.09967 23.2744 9.22711 23.2617C9.69867 23.2107 10.1702 23.2107 10.6545 23.1852C10.7055 23.1852 10.7692 23.1724 10.7947 23.1979C10.9604 23.3509 11.1261 23.2744 11.2917 23.2362C11.5976 23.1597 11.9035 23.2362 12.2094 23.2362C12.3241 23.2362 12.426 23.2489 12.5407 23.2234C12.6427 23.1979 12.7319 23.1852 12.8211 23.2744C12.8848 23.3382 12.9868 23.3509 13.0505 23.3127C13.2034 23.2234 13.3309 23.2617 13.4711 23.3254C13.5858 23.3764 13.6877 23.3892 13.7642 23.2744C13.8024 23.2234 13.8534 23.1724 13.8917 23.2234C13.9936 23.3509 14.1593 23.2999 14.274 23.3892C14.3887 23.4657 14.5799 23.4402 14.7201 23.3637C14.771 23.3382 14.8093 23.2744 14.8603 23.2999C15.1279 23.4274 15.421 23.3127 15.7396 23.3764C15.6122 23.4274 15.5357 23.4147 15.4465 23.4147C15.3445 23.4147 15.2426 23.4147 15.1406 23.4274C15.1024 23.4274 15.0769 23.4529 15.0769 23.5039C15.0769 23.5422 15.1151 23.5804 15.1406 23.5677C15.2426 23.5422 15.3573 23.6314 15.4338 23.5549C15.5867 23.4019 15.7396 23.4657 15.8671 23.5422C15.9818 23.6059 16.0837 23.6059 16.1984 23.5422C16.3641 23.4529 16.5171 23.4147 16.6827 23.5422C16.7719 23.6059 16.7719 23.5804 16.9504 23.4912C16.9121 23.3892 16.7719 23.4784 16.721 23.3637C16.9759 23.3764 17.2308 23.3892 17.4729 23.4019C17.7533 23.4147 17.8298 23.3382 17.8298 23.0832C17.8425 22.5987 17.8425 22.1015 17.8425 21.6171C17.8425 21.5661 17.8552 21.5278 17.9062 21.5278C17.9827 21.5278 17.9954 21.5788 18.0337 21.6425C18.2121 21.974 18.2121 22.3182 18.1993 22.6752C18.1866 22.9047 18.1993 23.1214 18.1993 23.3892C18.4415 23.2744 18.4033 23.0704 18.4033 22.9302C18.3905 22.7135 18.365 22.5095 18.4415 22.3055C18.4415 22.2928 18.4542 22.2673 18.4415 22.2545C18.3268 21.923 18.4797 21.6043 18.4925 21.2856C18.5052 20.5716 18.5307 19.8577 18.4797 19.131C18.467 18.8632 18.4415 18.5828 18.3778 18.3278C18.365 18.2895 18.3905 18.2385 18.4033 18.2003C18.416 18.0855 18.4415 17.9581 18.3905 17.8561C18.2631 17.5756 18.2503 17.2824 18.314 16.9891C18.2758 16.8361 18.1484 16.7724 18.1484 16.6576ZM29.6823 21.7063C29.5548 21.668 29.4529 21.719 29.3509 21.7828C28.9431 22.0505 28.599 22.4075 28.1529 22.6752C28.3568 22.7007 28.4333 22.6625 28.6117 22.5477C28.8666 22.3947 29.0578 22.1653 29.3254 22.0378C29.4911 21.974 29.6058 21.8593 29.6823 21.7063C29.7078 21.719 29.746 21.719 29.7842 21.7063C29.8225 21.6808 29.8862 21.668 29.848 21.6171C29.8225 21.5661 29.7587 21.5916 29.7333 21.6171C29.7078 21.6425 29.695 21.6808 29.6823 21.7063ZM34.9458 6.48386C34.8056 6.52211 34.7801 6.63685 34.7801 6.76434C34.7801 7.04482 34.7419 7.32531 34.7037 7.59304C34.6272 8.09025 34.6272 8.60022 34.487 9.09743C34.487 9.09743 34.5125 9.11018 34.538 9.12293C34.8694 8.28149 34.9331 7.38905 34.9458 6.48386C34.9076 6.40737 35.0095 6.30538 34.9076 6.21613C34.8439 6.34362 34.9076 6.40737 34.9458 6.48386ZM34.6527 4.87748C34.5635 4.82648 34.6017 4.72449 34.6017 4.66074C34.589 4.27827 34.589 4.27827 34.2066 4.29102C34.1939 4.29102 34.1939 4.29102 34.1811 4.29102C33.6714 4.29102 33.1616 4.31652 32.6518 4.30377C32.3587 4.30377 32.0655 4.25277 31.7724 4.34202C31.645 4.38026 31.5175 4.38026 31.3901 4.34202C31.1479 4.27827 30.9058 4.30377 30.6636 4.30377C29.8097 4.31652 28.9558 4.29102 28.1019 4.24002C27.7451 4.21452 27.3882 4.20178 27.0441 4.27827C26.8657 4.31652 26.7128 4.32927 26.5343 4.27827C26.4196 4.24002 26.254 4.17628 26.1648 4.26552C26.0246 4.39301 25.9099 4.35476 25.7697 4.29102C25.655 4.24002 25.4893 4.26552 25.4383 4.31652C25.3364 4.43126 25.2471 4.36751 25.1452 4.39301C24.7883 4.48226 24.4187 4.29102 24.0619 4.48226C24.0237 4.50775 23.9727 4.495 23.9217 4.48226C23.4756 4.41851 23.0296 4.44401 22.5835 4.41851C21.9845 4.38026 21.3728 4.38026 20.7738 4.35476C20.4806 4.34202 20.4552 4.35476 20.4297 4.64799C20.4297 4.66074 20.4169 4.68624 20.4297 4.69899C20.5444 5.23445 20.3787 5.75717 20.3659 6.29263C20.3532 7.17232 20.3404 8.052 20.3532 8.93169C20.3659 9.5819 20.3404 10.2321 20.3914 10.8951C20.4042 11.0735 20.3277 11.2265 20.3277 11.405C20.3532 12.0297 20.3404 12.6544 20.3022 13.2664C20.2895 13.3939 20.3787 13.4831 20.3277 13.6106C20.2512 13.8146 20.3787 14.0441 20.3022 14.2481C20.4169 14.6178 20.315 14.9875 20.315 15.3572C20.315 15.523 20.315 15.6887 20.315 15.8417C20.315 16.1987 20.3022 16.5684 20.315 16.9254C20.3404 17.3971 20.3914 17.8688 20.3277 18.3405C20.3022 18.5573 20.3405 18.774 20.3277 19.0035C20.3022 19.3095 20.2767 19.6154 20.3405 19.9342C20.4169 20.3039 20.3659 20.6864 20.3914 21.0688C20.4297 21.7318 20.4042 22.3947 20.4169 23.0577C20.4169 23.1214 20.3787 23.1979 20.4297 23.2362C20.5061 23.2999 20.5061 23.3254 20.4297 23.4019C20.3787 23.4529 20.3532 23.5549 20.4042 23.6314C20.4424 23.6952 20.5189 23.6569 20.5826 23.6569C21.2963 23.6187 21.9845 23.4019 22.6982 23.3127C22.9531 23.2872 23.1953 23.1724 23.4501 23.1342C23.9854 23.0577 24.4952 22.841 24.9795 22.6115C25.0305 22.586 25.0687 22.5477 25.0942 22.4967H25.0815C25.1324 22.535 25.1707 22.5605 25.2471 22.4967C25.3618 22.4075 25.4893 22.3182 25.655 22.3692C25.502 22.4585 25.3746 22.5732 25.2344 22.688C25.3746 22.6752 25.5275 22.6497 25.6422 22.586C26.1393 22.2928 26.6745 22.0505 27.1716 21.7573C27.7706 21.4003 28.3441 21.0051 28.8794 20.5589C28.9558 20.4951 29.0323 20.4059 29.1597 20.4441C28.9558 20.5971 28.8156 20.8011 28.5735 21.0178C28.8666 20.9668 29.096 20.9158 29.2617 20.7246C29.4401 20.5461 29.6313 20.3676 29.7715 20.1637C29.797 20.1254 29.8097 20.0744 29.8734 20.0872C30.0264 20.1254 30.1029 20.0107 30.1921 19.9214C30.4597 19.6537 30.7273 19.386 30.995 19.1055C31.1224 18.9652 31.2244 18.7995 31.3773 18.6848C31.4028 18.6593 31.4156 18.5955 31.3773 18.5573C31.3391 18.519 31.2881 18.5318 31.2499 18.5573C31.1479 18.6338 31.046 18.7103 30.9695 18.8122C30.9058 18.9142 30.842 19.0162 30.6764 19.029C30.9058 18.723 31.1607 18.4808 31.3773 18.2003C31.7214 17.7413 32.091 17.2951 32.4096 16.8106C32.4734 16.7214 32.4861 16.6067 32.5243 16.5047C32.5498 16.4409 32.5116 16.3772 32.4479 16.3517C32.3841 16.3262 32.3459 16.3772 32.3077 16.4154C32.2694 16.4792 32.193 16.5684 32.2057 16.6322C32.2185 16.8871 31.9763 16.9126 31.8744 17.0656C31.8616 17.0784 31.8234 17.0784 31.7979 17.0656C31.7724 17.0529 31.7724 17.0274 31.7851 16.9891C31.8106 16.9126 31.8998 16.8999 31.9253 16.8234C32.0146 16.5302 32.2822 16.3134 32.2822 15.9692C32.4734 15.7652 32.4861 15.4975 32.5753 15.2552C32.7792 14.707 32.9577 14.1588 33.1743 13.6234C33.238 13.4449 33.3655 13.2919 33.391 13.1006C33.442 12.7564 33.6586 12.4632 33.7096 12.119C33.7606 11.8002 33.939 11.507 34.0027 11.1883C34.0155 11.1373 34.0537 11.0735 34.0155 11.0353C33.9135 10.9206 33.9645 10.8313 34.0537 10.7293C34.1302 10.6401 34.1557 10.5381 34.1557 10.4233C34.1684 10.3213 34.1811 10.2321 34.2066 10.1301C34.2958 9.68389 34.3596 9.23767 34.3978 8.79145C34.4105 8.65121 34.3723 8.49822 34.3596 8.35798C34.3596 8.21774 34.436 8.11575 34.436 8.00101C34.4233 7.73328 34.487 7.47829 34.5125 7.22331C34.5507 6.95558 34.6654 6.7006 34.5252 6.43287C34.5125 6.40737 34.5252 6.35637 34.538 6.33088C34.6272 6.20338 34.6527 6.08864 34.5635 5.93565C34.5125 5.85916 34.5635 5.61693 34.6017 5.60418C34.7547 5.55318 34.6399 5.76991 34.7419 5.80816C34.7546 5.80816 34.7547 5.80816 34.7801 5.80816C34.8311 5.75717 34.8056 5.68067 34.8184 5.61693C34.9458 5.23445 34.8439 4.83923 34.8566 4.44401C34.8566 4.38026 34.8311 4.31652 34.7419 4.31652C34.6399 4.31652 34.6145 4.38026 34.6272 4.45676C34.6272 4.53325 34.6527 4.597 34.6527 4.67349C34.7037 4.73724 34.7674 4.82648 34.6527 4.87748ZM17.3964 23.6442C17.4347 23.6442 17.4856 23.6442 17.5239 23.6314C17.5749 23.6187 17.6386 23.6187 17.6258 23.5422C17.6131 23.4912 17.5621 23.4657 17.5239 23.4784C17.3709 23.5039 17.218 23.4784 17.0651 23.4784C17.0268 23.4784 16.9886 23.4912 16.9886 23.5294C16.9886 23.5804 17.0141 23.6314 17.0651 23.6187C17.1798 23.5932 17.2945 23.6442 17.3964 23.6442Z" fill="#222222"/>
<path d="M18.1484 34.0219C17.766 34.1112 17.3709 34.0984 16.9886 34.1367C17.269 34.3152 17.5621 34.1877 17.8425 34.1877C17.8043 34.3024 17.6896 34.2769 17.6131 34.2769C17.3582 34.2769 17.1161 34.2769 16.8612 34.3152C17.4092 34.3917 17.9699 34.3916 18.518 34.5574C18.5052 34.6721 18.4925 34.8251 18.7219 34.7996C18.7601 34.7996 18.7983 34.8379 18.8366 34.8634C18.8748 34.8889 18.9258 34.9144 18.913 34.9654C18.9003 35.0291 18.8366 35.0291 18.7856 35.0291C18.6709 35.0291 18.5435 35.0291 18.4288 35.0674C18.3778 35.0801 18.3141 35.1056 18.3395 35.1821C18.3523 35.2331 18.4033 35.2331 18.4542 35.2331C18.7091 35.2076 18.964 35.2713 19.2317 35.3096C19.015 35.3478 18.7983 35.3988 18.5817 35.4116C18.2886 35.4371 18.0082 35.5646 17.7023 35.5901C17.6513 35.5901 17.6258 35.6283 17.6131 35.6793C17.6003 35.7431 17.5494 35.7558 17.5111 35.7431C17.269 35.6793 17.1161 35.896 16.8994 35.9343C17.3327 36.1383 17.7915 35.9725 18.2376 35.998C18.2503 36.049 18.2248 36.0745 18.1866 36.0745C17.9062 36.0618 17.6641 36.2785 17.3837 36.2403C17.3455 36.2403 17.3455 36.2913 17.32 36.3168C17.2053 36.406 17.1033 36.5207 16.9376 36.3933C16.8866 36.355 16.8102 36.3678 16.7847 36.406C16.7082 36.5462 16.6063 36.5335 16.4788 36.4953C16.4278 36.4825 16.3641 36.4825 16.3131 36.508C16.1729 36.5845 16.02 36.61 15.8671 36.559C15.8288 36.5462 15.7524 36.5335 15.7396 36.559C15.523 36.8267 15.2681 36.6355 15.0259 36.6355C14.9877 36.6355 14.9622 36.61 14.924 36.6355C14.7328 36.7375 14.5416 36.6992 14.3377 36.661C14.1593 36.6227 13.9681 36.6737 13.777 36.661C13.6495 36.6482 13.5221 36.661 13.4201 36.559C13.3819 36.5207 13.3181 36.4825 13.2799 36.4953C13.0633 36.5717 12.8593 36.4443 12.6427 36.508C12.5662 36.5335 12.5025 36.5335 12.426 36.5207C12.0819 36.4443 11.7251 36.4315 11.3682 36.5207C11.0751 36.5845 10.782 36.4953 10.5016 36.5335C10.1192 36.5845 9.7369 36.4443 9.35456 36.4825C9.20163 36.4953 9.0232 36.4698 8.87026 36.4188C8.57714 36.3295 8.29675 36.3678 8.00363 36.4188C7.90167 36.4315 7.81246 36.457 7.7105 36.3933C7.62129 36.3423 7.50659 36.3423 7.41737 36.3678C7.18797 36.4315 6.95857 36.3805 6.72916 36.3933C6.49976 36.406 6.24487 36.3168 6.02821 36.4825C6.01546 36.4953 5.96448 36.4953 5.95174 36.4953C5.72233 36.3678 5.46744 36.4825 5.22529 36.457C5.02138 36.4315 4.79198 36.4188 4.57532 36.4825C4.49885 36.508 4.40964 36.508 4.33317 36.508C3.91259 36.4698 3.50477 36.5335 3.08419 36.5972C2.80381 36.6355 2.51068 36.6737 2.24304 36.7757C2.05188 36.8522 1.86071 36.712 1.68228 36.6482C1.58032 36.61 1.47837 36.5463 1.4019 36.4825C1.32543 36.4188 1.24896 36.3678 1.13426 36.3805C1.05779 36.3933 0.955835 36.3678 0.955835 36.253C0.955835 36.1765 0.892112 36.0618 1.0323 36.0235C1.08328 36.0108 1.10877 35.9725 1.08328 35.9215C1.0323 35.8195 1.08328 35.6793 1.04505 35.6283C0.930346 35.4881 1.00681 35.3478 1.00681 35.2076C1.01956 34.9909 1.00681 34.7741 0.981324 34.5574C0.96858 34.4299 0.94309 34.3024 0.841133 34.2132C0.751921 34.1367 0.764665 34.0092 0.662708 33.9327C0.764665 33.8689 0.815644 33.9964 0.892112 33.9709C0.917601 33.9454 0.930346 33.9072 0.917601 33.8689C0.841133 33.7032 0.853878 33.6012 1.04505 33.5502C1.147 33.5247 1.04505 33.41 1.10877 33.359C1.27445 33.4482 1.46562 33.4482 1.61856 33.5757C1.69502 33.6395 1.78424 33.614 1.79698 33.4992C1.79698 33.4482 1.79698 33.3845 1.79698 33.3335C1.82247 33.3335 1.84796 33.3207 1.86071 33.3335C2.14109 33.6012 2.14109 33.6267 2.52343 33.5885C2.81655 33.563 3.10968 33.5885 3.39006 33.614C3.64496 33.6395 3.89985 33.6012 4.15474 33.6267C4.70276 33.6777 5.26353 33.6267 5.81155 33.665C6.65269 33.7159 7.4811 33.6777 8.32224 33.7287C9.18888 33.7797 10.0555 33.7159 10.9094 33.7669C11.33 33.7924 11.7633 33.8179 12.1966 33.7542C12.3496 33.7287 12.528 33.7797 12.6937 33.7797C13.4328 33.7797 14.172 33.7924 14.9112 33.7797C15.37 33.7669 15.8288 33.8689 16.2877 33.9072C16.8484 33.9454 17.3964 33.9582 17.9572 33.9582C18.0209 33.9582 18.1101 33.9199 18.1484 34.0219Z" fill="#222222"/>
<path d="M17.7151 15.6887C17.4984 15.5357 17.5239 15.3317 17.5366 15.1533C17.5494 14.911 17.5239 14.6815 17.5239 14.4521C17.5239 14.0186 17.5111 13.5851 17.4984 13.1516C17.4856 12.7309 17.4984 12.2975 17.4856 11.8767C17.4729 11.3795 17.4984 10.8823 17.4984 10.3851C17.4984 9.92612 17.4984 9.4799 17.4984 9.02094C17.4984 8.57472 17.4984 8.1285 17.4984 7.69503C17.4984 7.56754 17.4474 7.44005 17.4602 7.31256C17.4602 7.23606 17.4729 7.17232 17.5621 7.10857C17.6386 7.23606 17.6513 7.3763 17.6513 7.50379C17.6641 8.52372 17.6641 9.54365 17.6768 10.5636C17.6768 11.15 17.7023 11.7365 17.6386 12.3102C17.5876 12.7054 17.6513 13.1006 17.6513 13.4831C17.6386 13.8783 17.6641 14.2863 17.6896 14.6815C17.7023 14.9875 17.6896 15.319 17.7151 15.6887Z" fill="#222222"/>
<path d="M33.7223 56.2691C33.5567 56.7663 31.543 59.5839 31.1479 59.8644C31.2754 59.6859 31.3391 59.5329 31.4028 59.3799C31.5557 59.0229 31.8234 58.7552 32.04 58.4365C32.2312 58.156 32.4479 57.901 32.6263 57.6205C32.8684 57.2253 33.1998 56.8811 33.442 56.4858C33.5057 56.3966 33.6586 56.3711 33.7223 56.2691Z" fill="#222222"/>
<path d="M4.06553 44.081C3.73417 44.1065 3.40281 44.1192 3.07145 44.1447C2.90577 44.1575 2.79106 44.0555 2.65087 44.0172C3.02047 44.03 3.39006 44.0172 3.74691 43.9662C3.86162 43.9662 3.97632 44.0172 4.06553 44.081Z" fill="#222222"/>
<path d="M17.8425 18.9907C17.8552 18.8505 17.8552 18.6975 17.868 18.5445C17.868 18.5063 17.9062 18.4808 17.9445 18.4808C17.9827 18.4808 17.9954 18.5063 17.9827 18.5318C17.9572 18.7867 17.9827 19.029 18.0082 19.284C18.0082 19.335 18.0337 19.4115 17.9572 19.4115C17.8935 19.4115 17.817 19.3732 17.8425 19.2967C17.868 19.1947 17.8425 19.1055 17.8425 18.9907Z" fill="#222222"/>
<path d="M17.9317 19.5389C17.9062 19.6537 17.9445 19.7557 17.9699 19.8577C18.0082 19.9979 18.0082 20.1382 17.9699 20.2911C17.9572 20.3294 17.9317 20.3421 17.8935 20.3549C17.8807 20.3549 17.8552 20.3421 17.8552 20.3294C17.868 20.0617 17.7788 19.7812 17.9317 19.5389Z" fill="#222222"/>
<path d="M17.7915 21.0688C17.8425 21.0051 17.7023 20.8521 17.8552 20.8394C18.0592 20.8139 17.8935 21.0051 17.9572 21.0816C18.0082 21.1326 18.0082 21.2218 17.9572 21.2856C17.9317 21.3238 17.8935 21.3621 17.8425 21.3493C17.7788 21.3366 17.7788 21.2983 17.7788 21.2473C17.7915 21.1963 17.7915 21.1453 17.7915 21.0688Z" fill="#222222"/>
<path d="M18.1484 34.0219C18.3778 33.9072 18.6199 34.0602 18.8493 33.9964C18.9003 34.0602 18.8111 34.0857 18.8111 34.1367C18.8111 34.2514 18.6582 34.2259 18.6454 34.2132C18.5562 34.0092 18.365 34.1112 18.2248 34.0602C18.1993 34.0474 18.1739 34.0347 18.1484 34.0219Z" fill="#222222"/>
<path d="M29.3382 47.0388C29.198 47.1025 29.045 47.128 28.8921 47.0515C29.045 47.0515 29.1852 47.0005 29.3382 47.0388Z" fill="#222222"/>
<path d="M17.8935 20.7374C17.7915 20.6481 17.8043 20.5716 17.868 20.4951C17.8935 20.4696 17.9445 20.4824 17.9572 20.5079C18.0082 20.6099 17.9445 20.6609 17.8935 20.7374Z" fill="#222222"/>
<path d="M54.4579 47.23C54.4451 47.1535 54.4324 47.0898 54.4069 46.9878C54.5343 47.0643 54.4834 47.1535 54.4579 47.23Z" fill="#222222"/>
<path d="M17.32 66.0987C17.3582 66.0604 17.4092 66.0732 17.4602 66.0859C17.4856 66.0859 17.4856 66.1114 17.4729 66.1114C17.4219 66.1242 17.3709 66.1369 17.32 66.0987Z" fill="#222222"/>
<path d="M15.9053 23.3254C15.9308 23.3254 15.9563 23.3127 15.9818 23.3127C16.0073 23.3127 16.0328 23.3127 16.0455 23.3382C16.0328 23.3382 16.02 23.3509 16.0073 23.3509C15.969 23.3382 15.9435 23.3382 15.9053 23.3254Z" fill="#222222"/>
<path d="M19.614 35.2968C19.563 35.2968 19.5248 35.2968 19.4228 35.2968C19.5248 35.2841 19.563 35.2841 19.614 35.2713C19.6013 35.2841 19.614 35.2968 19.614 35.2968Z" fill="#222222"/>
<path d="M17.7023 16.0584C17.6386 16.0202 17.6386 15.9564 17.6258 15.8927C17.7533 15.931 17.6896 16.0074 17.7023 16.0584Z" fill="#222222"/>
<path d="M17.8425 34.1749C17.919 34.2004 17.9827 34.1749 18.0592 34.1877C17.9827 34.3024 17.919 34.2132 17.8425 34.1749Z" fill="#222222"/>
<path d="M18.0846 35.7558C18.0592 35.7431 18.0082 35.7558 18.0209 35.7048C18.0209 35.6921 18.0464 35.6793 18.0592 35.6793C18.0974 35.6921 18.1229 35.7048 18.1356 35.7431C18.1229 35.7558 18.1101 35.7558 18.0846 35.7558Z" fill="#222222"/>
<path d="M40.477 45.5599C40.528 45.5726 40.579 45.5344 40.6172 45.5854L40.6044 45.6236C40.5407 45.6364 40.5152 45.5726 40.477 45.5599Z" fill="#222222"/>
<path d="M32.0018 59.8644C31.9636 59.8899 31.9253 59.8899 31.9381 59.8389C31.9508 59.8006 32.0018 59.7751 32.0528 59.8134C32.0273 59.8261 32.0146 59.8389 32.0018 59.8644Z" fill="#222222"/>
<path d="M32.1293 59.5329C32.1547 59.5201 32.2185 59.4819 32.2185 59.4946C32.2567 59.5329 32.2057 59.5584 32.1802 59.5711C32.142 59.5966 32.142 59.5584 32.1293 59.5329Z" fill="#222222"/>
<path d="M40.0692 30.9876C40.0564 31.0386 40.0564 31.1024 40.0692 31.1534C40.0309 31.1279 39.9672 31.1534 39.9672 31.0896C39.9672 31.0259 40.0054 31.0004 40.0692 30.9876Z" fill="#222222"/>
<path d="M25.1069 22.4712C24.8521 22.484 24.6227 22.586 24.3932 22.6497C23.9982 22.7772 23.6158 22.9302 23.2207 22.9939C22.7874 23.0577 22.3796 23.1724 21.9335 23.1979C21.5767 23.2234 21.2071 23.2234 20.8502 23.2872C20.812 23.2872 20.7738 23.2872 20.7355 23.2617C21.1051 23.2107 21.4875 23.1469 21.8571 23.0959C22.3541 23.0449 22.8384 22.9302 23.3354 22.8282C23.8452 22.7135 24.3423 22.586 24.8393 22.4457C24.9285 22.4457 25.005 22.4075 25.1069 22.4712Z" fill="#222222"/>
<path d="M34.5762 5.31095C34.5762 5.25995 34.6145 5.23445 34.6654 5.2472C34.7419 5.25995 34.7419 5.3237 34.7419 5.37469C34.7419 5.42569 34.7037 5.45119 34.6527 5.45119C34.5762 5.42569 34.6017 5.36194 34.5762 5.31095Z" fill="#222222"/>
<path d="M32.8175 13.8146C32.8684 13.6871 32.8939 13.5979 32.9449 13.4959C32.9577 13.6744 32.9577 13.6744 32.8175 13.8146Z" fill="#222222"/>
<path d="M33.0214 13.3174C33.0086 13.2154 33.0851 13.1899 33.0978 13.1134C33.1361 13.2026 33.1106 13.2664 33.0214 13.3174Z" fill="#222222"/>
<path d="M32.7537 14.2098C32.7282 14.2226 32.7155 14.2098 32.7155 14.1971C32.7155 14.1716 32.7155 14.1461 32.741 14.1333C32.7665 14.1206 32.792 14.1333 32.792 14.1588C32.7792 14.1716 32.7665 14.1971 32.7537 14.2098Z" fill="#222222"/>
<path d="M26.0246 22.1015C25.9991 22.0888 25.9991 22.076 25.9991 22.0633C26.0118 22.0378 26.0118 22.0123 26.0501 22.0123C26.0628 22.0123 26.0755 22.0378 26.0755 22.0505C26.0628 22.076 26.0501 22.0888 26.0246 22.1015Z" fill="#222222"/>
<path d="M34.6527 4.87748C34.6909 4.94122 34.7037 5.00497 34.6654 5.11971C34.6017 5.00497 34.6527 4.94122 34.6527 4.87748Z" fill="#222222"/>
</svg>
