<svg width="85" height="17" viewBox="0 0 85 17" fill="none" xmlns="http://www.w3.org/2000/svg">
<path d="M80.5386 0.375488H84.5465V11.9108C84.5465 13.3837 84.5465 14.3814 83.7544 15.2649C82.8719 16.2626 81.3767 16.3755 80.0862 16.3755H77.4148V13.1342H78.0941C80.2449 13.1342 80.5386 12.8848 80.5386 11.4802V0.375488Z" fill="#222222"/>
<path d="M58.4997 4.18395C58.2965 4.9991 58.0695 5.838 57.8426 6.65463C57.5029 7.85581 56.8918 9.73703 56.5298 10.9382H60.5822L58.4997 4.18544V4.18395ZM60.6505 0.375488L66.5377 16.3755H62.2806L61.4885 13.8142H55.6013L54.8092 16.3755H50.5536L56.4853 0.375488H60.6505Z" fill="#222222"/>
<path d="M30.6669 3.75188V13.158H31.8892C34.0177 13.1119 36.9606 12.9991 36.9606 8.39924C36.9606 7.28863 36.8479 6.17801 36.1225 5.18024C35.0353 3.72961 33.4956 3.75188 32.2734 3.75188H30.6655H30.6669ZM26.6368 0.375488H31.7305C33.678 0.39776 36.6209 0.443788 38.659 2.25671C40.3114 3.75188 40.9462 5.99687 40.9462 8.24037C40.9462 9.6227 40.743 10.6427 40.5383 11.3228C39.0669 16.2626 34.6066 16.3532 32.9305 16.377H26.6368V0.375488Z" fill="#222222"/>
<path d="M0.453491 0.375488V16.3755H12.9741V13.2263H4.43765V9.4178H12.9741V6.38143H4.43765V3.48017H12.9741V0.375488H0.453491Z" fill="#222222"/>
</svg>
