<svg width="236" height="236" viewBox="0 0 236 236" fill="none" xmlns="http://www.w3.org/2000/svg">
<rect width="236" height="236" rx="118" fill="#FDFEFF"/>
<path d="M135.047 176.055C135.116 174.97 135.116 173.921 135.71 172.941C136.024 172.451 136.129 171.787 136.233 171.192C136.268 170.947 136.303 170.737 136.443 170.527C136.582 170.282 136.826 170.037 136.617 169.687C136.547 169.547 136.617 169.442 136.757 169.372C137.036 169.268 137.001 168.988 137.071 168.743C137.35 168.323 137.35 167.833 137.28 167.273C136.896 167.798 136.896 168.253 137.071 168.743C136.931 168.778 136.792 168.848 136.617 168.883C136.722 167.798 137.036 166.784 137.141 165.734C137.245 165.034 137.524 164.37 137.42 163.635C137.42 163.565 137.42 163.495 137.455 163.425C138.013 162.165 137.873 160.766 138.118 159.471C138.257 158.527 138.222 157.582 138.118 156.603C138.013 155.588 138.083 154.538 138.083 153.524C138.083 153.314 138.083 153.069 138.083 152.859C138.118 152.509 137.943 152.369 137.594 152.369C136.477 152.404 135.396 152.439 134.279 152.509C133.79 152.544 133.372 152.929 132.953 152.894C132.534 152.894 132.08 152.614 131.627 152.614C131.522 152.614 131.417 152.614 131.348 152.684C130.65 153.279 129.777 153.244 128.94 153.244C127.3 153.244 125.659 153.104 124.019 152.894C123.461 152.824 122.868 152.754 122.519 153.349C122.344 152.964 122.1 152.859 121.611 152.859C121.123 152.859 120.634 152.999 120.146 152.859C120.041 152.824 119.936 152.859 119.901 152.964C119.797 153.139 119.936 153.139 120.076 153.174C120.215 153.209 120.32 153.314 120.25 153.454C120.215 153.594 120.041 153.594 119.936 153.594C119.273 153.454 118.575 153.664 117.877 153.489C117.528 153.384 117.144 153.594 116.795 153.594C115.33 153.594 113.899 153.629 112.433 153.629C110.828 153.629 109.258 153.489 107.687 153.419C106.571 153.384 105.489 153.699 104.372 153.594C104.163 153.559 103.918 153.594 103.674 153.559C103.116 153.524 102.592 153.419 101.999 153.629C101.336 153.839 100.533 153.664 99.8006 153.909C99.5563 153.979 99.1375 153.804 98.7885 153.874C97.9161 154.014 97.0437 154.049 96.1713 154.119C94.7754 154.224 93.3795 154.364 91.9836 154.224C90.832 154.084 89.6804 154.189 88.5288 154.189C87.1678 154.224 85.8068 154.119 84.4807 153.979C83.7828 153.909 83.0848 154.084 82.4218 154.189C81.5493 154.329 80.6769 154.154 79.8394 154.294C79.3159 154.364 78.7576 154.259 78.3039 154.119C77.0825 153.769 75.8611 153.979 74.6397 153.909C73.7324 153.839 72.8251 153.874 71.9526 153.874C71.6734 153.874 71.3943 153.874 71.15 153.979C71.0802 154.014 70.9755 154.084 70.9406 154.049C70.3125 153.699 69.6494 154.014 69.0213 153.979C68.3582 153.944 67.6603 154.014 66.9972 153.979C64.7289 153.944 62.4257 153.874 60.1574 153.874C59.285 153.874 58.4125 153.944 57.5401 154.084C56.9817 154.189 56.4234 154.119 55.9348 153.944C55.5859 153.804 55.2369 153.769 54.8879 153.874C53.2477 154.329 51.5727 154.224 49.9325 154.433C49.3393 154.503 48.7809 154.434 48.2226 154.259C47.4897 154.014 46.7918 153.944 46.1287 154.433C45.9542 154.573 45.8495 154.433 45.7798 154.294C45.4308 153.489 44.9422 152.789 44.4537 152.054C44.4188 152.019 44.3839 151.949 44.3839 151.949C44.7328 151.39 44.2792 150.9 44.2094 150.375C44.1745 150.06 44.1396 149.78 44.3839 149.535C44.5933 149.326 44.5933 149.046 44.5584 148.696C44.4886 148.031 44.349 147.331 44.9073 146.772C45.012 146.667 44.9771 146.492 44.9771 146.352C44.9422 146.072 44.9422 145.792 44.9422 145.512C44.9771 145.092 45.361 144.847 45.71 145.057C45.8844 145.162 46.1636 145.267 45.8844 145.547C45.8495 145.582 45.8147 145.617 45.8147 145.687C45.8147 145.897 45.7449 146.107 45.9891 146.212C46.2334 146.317 46.4428 146.002 46.4428 145.932C46.2334 145.372 47.0361 145.477 47.0012 145.057C47.0012 144.952 47.1756 144.987 47.2454 145.057C48.4668 145.862 49.8627 145.862 51.2237 145.862C52.7592 145.862 54.2598 145.792 55.7952 145.827C56.4234 145.827 57.0864 145.757 57.7844 145.932C57.2958 145.547 56.2838 145.407 55.1671 145.512C55.202 145.232 55.4114 145.162 55.5859 145.197C56.214 145.372 56.8073 145.162 57.4005 145.197C57.575 145.197 57.7844 145.162 57.924 145.232C58.5521 145.512 59.2152 145.232 59.8084 145.302C60.8204 145.442 61.7627 145.127 62.7398 145.197C63.7169 145.267 64.7289 145.337 65.706 145.372C66.5087 145.372 67.3462 145.442 68.1488 145.337C68.3582 145.302 68.6374 145.267 68.8119 145.337C69.3353 145.582 69.8239 145.442 70.3474 145.337C70.6963 145.267 70.9755 145.372 71.3245 145.372C73.174 145.267 75.0236 145.512 76.8731 145.442C77.8851 145.407 78.8972 145.442 79.9092 145.442C80.642 145.442 81.4447 145.407 82.1775 145.757C82.3171 145.827 82.4567 145.862 82.5963 145.757C83.015 145.442 83.4687 145.477 83.9573 145.512C85.0042 145.582 86.0511 145.722 87.098 145.582C88.6335 145.337 90.1341 145.582 91.6695 145.477C91.8091 145.477 92.0185 145.442 92.1232 145.512C92.7862 145.932 93.4493 145.722 94.1472 145.582C94.7405 145.477 95.3686 145.547 95.9968 145.582C96.8343 145.617 97.6718 145.547 98.5094 145.547C99.4516 145.512 100.429 145.477 101.371 145.512C101.929 145.547 102.453 145.442 103.011 145.477C104.023 145.512 105.035 145.407 106.047 145.617C106.257 145.652 106.431 145.547 106.64 145.512C107.618 145.372 108.595 145.547 109.537 145.512C110.305 145.477 111.037 145.617 111.84 145.547C112.503 145.477 113.166 145.547 113.829 145.582C114.806 145.652 115.749 145.722 116.726 145.652C117.389 145.582 118.052 145.827 118.715 145.757C119.657 145.652 120.634 146.037 121.576 145.687C121.611 145.687 121.681 145.652 121.716 145.687C122.868 146.177 124.054 145.792 125.206 145.862C126.253 145.932 127.369 145.862 128.451 145.862C129.707 145.827 130.964 145.862 132.22 145.827C133.651 145.792 135.047 145.967 136.443 146.072C136.966 146.107 137.455 145.932 137.978 146.212C138.187 146.317 138.292 146.072 138.327 145.862C138.362 145.407 138.397 144.952 138.467 144.532C138.536 143.833 138.606 143.168 138.711 142.468C138.781 142.083 138.711 141.664 138.711 141.279C138.676 140.509 138.885 139.739 138.711 139.005C138.676 138.795 138.711 138.585 138.746 138.34C139.025 136.906 139.234 135.471 139.618 134.037C139.688 133.827 140.037 133.372 139.444 133.197C139.304 133.162 139.444 132.917 139.514 132.812C140.072 131.553 140.107 130.223 140.351 128.894C140.456 128.334 140.56 127.739 140.909 127.249C141.119 126.97 140.805 126.62 140.979 126.41C141.119 126.2 141.538 126.34 141.677 125.99C141.817 125.535 142.201 125.185 142.27 124.695C142.305 124.52 142.375 124.381 142.55 124.276C142.689 124.171 142.794 123.996 142.829 123.856C142.864 123.016 143.282 122.316 143.596 121.617C143.876 120.987 144.05 120.287 144.434 119.692C144.853 119.028 144.888 118.223 145.272 117.523C146.039 116.194 146.737 114.794 147.47 113.43C147.61 113.15 147.784 112.87 148.063 112.66C148.203 112.555 148.343 112.345 148.377 112.17C148.517 111.681 148.726 111.296 149.04 110.911C149.18 110.771 149.145 110.596 149.11 110.316C146.807 113.36 145.132 116.614 143.596 120.077C143.282 119.378 143.248 119.378 143.457 118.923C144.05 117.453 144.574 115.949 145.411 114.549C145.935 113.675 146.284 112.695 146.737 111.786C146.842 111.576 146.947 111.331 147.086 111.121C148.203 109.512 149.285 107.902 150.401 106.328C151.483 104.823 152.46 103.249 153.821 101.92C154.903 100.87 155.88 99.7504 156.997 98.7708C157.555 98.316 158.114 97.8962 158.672 97.4413C159.649 96.6367 160.452 95.6221 161.499 94.8874C162.895 93.9078 164.221 92.8582 165.721 92.0885C167.117 91.3888 168.478 90.5491 169.909 89.9543C170.886 89.5345 171.759 88.9048 172.771 88.5199C174.864 87.7152 176.993 86.9805 179.192 86.5957C180.169 86.4208 181.216 86.3508 182.193 86.0709C182.507 85.9659 182.821 86.0009 183.17 86.0009C183.833 86.0359 184.461 85.966 185.089 85.826C185.857 85.6511 186.694 85.721 187.462 85.5461C187.707 85.5111 187.916 85.3712 188.16 85.3012C187.323 84.9863 186.45 85.2662 185.578 85.2312C184.74 85.1613 183.938 85.5461 183.03 85.4412C183.135 85.4062 183.205 85.3012 183.275 85.3012C184.217 85.2312 185.089 84.8114 186.066 84.8814C186.555 84.4965 187.113 84.7764 187.637 84.8114C187.916 84.8464 188.125 84.8464 188.195 84.5315C188.23 84.3566 188.335 84.3216 188.439 84.3566C188.719 84.3916 188.963 84.2516 189.242 84.2167C189.033 84.7764 189.033 84.7764 189.521 84.8114C189.765 84.8464 190.01 84.7414 190.289 84.8814C190.01 85.1613 189.731 84.9863 189.486 84.9863C189.382 84.9863 189.277 85.0213 189.242 85.1263C189.207 85.2662 189.347 85.2662 189.416 85.3012C189.696 85.4412 189.975 85.2312 190.289 85.3012C190.568 85.3712 190.847 85.2312 190.952 85.6861C190.987 85.896 191.371 86.0359 191.615 85.7211C191.72 85.5811 191.824 85.5111 192.034 85.4062C192.348 86.3858 193.116 86.6307 194.128 86.6657C193.325 86.5607 193.185 87.3304 192.662 87.5753C193.011 87.9602 193.43 87.6103 193.779 87.7152C194.162 87.8552 194.442 88.1701 195 88.0301C194.511 88.415 194.023 88.31 193.569 88.345C192.801 88.38 192.732 88.415 192.627 89.1847C192.557 89.6395 192.557 90.0943 192.557 90.5141C192.557 91.6337 192.522 92.7532 192.487 93.8728C192.453 94.6425 192.557 95.3772 192.592 96.1469C192.697 98.0711 192.697 100.03 192.767 101.955C192.801 102.619 192.697 103.249 192.662 103.914C192.592 105.033 192.557 106.188 192.522 107.307C192.487 108.427 192.383 109.546 192.418 110.666C192.453 111.611 192.313 112.555 192.383 113.5C192.453 114.27 192.243 115.074 192.278 115.879C192.278 116.404 192.278 116.929 192.208 117.453C192.104 118.223 192.243 118.993 192.278 119.762C192.313 120.042 192.313 120.357 192.208 120.567C191.929 121.232 192.034 121.897 192.069 122.561C192.138 123.611 192.138 124.66 192.138 125.71C192.208 127.739 192.208 129.803 192.243 131.833C192.243 133.687 192.348 135.576 191.929 137.395C192.138 138.165 191.999 138.935 192.104 139.704C192.208 140.404 192.069 141.174 192.313 141.874C192.348 141.943 192.313 142.048 192.278 142.083C191.58 143.028 191.894 144.113 191.859 145.127C191.824 146.562 191.964 147.961 191.894 149.396C191.859 149.99 191.615 150.55 191.545 151.145C191.51 151.39 191.441 151.635 191.441 151.88C191.475 152.334 191.301 152.684 191.092 153.069C190.777 153.734 190.463 154.433 190.394 155.203C190.324 156.148 189.975 157.022 189.905 158.002C189.661 157.897 189.696 157.757 189.696 157.617C189.696 156.708 189.661 155.833 189.277 154.993C189.172 154.748 189.242 154.538 189.277 154.329C189.312 153.664 189.033 152.999 189.172 152.334C189.207 152.159 189.102 151.984 188.893 151.984C188.649 151.984 188.614 152.159 188.579 152.334C188.439 153.139 188.474 153.944 188.439 154.713C188.404 155.798 188.404 156.917 188.509 158.002C188.544 158.282 188.474 158.562 188.404 158.807C188.265 158.422 188.3 158.002 188.335 157.617C188.37 157.127 188.055 156.952 187.846 156.673C187.776 156.568 187.602 156.568 187.497 156.603C187.358 156.673 187.323 156.813 187.392 156.917C187.602 157.302 187.427 157.547 187.148 157.757C187.009 157.862 186.939 157.967 186.939 158.142C186.904 158.807 186.764 159.471 186.904 160.171C187.009 160.801 187.078 161.501 186.729 162.13C186.59 161.816 186.485 161.501 186.485 161.081C185.613 161.571 186.415 162.34 185.927 162.9C185.717 162.41 185.787 161.92 185.752 161.466C185.717 160.836 185.682 160.206 185.543 159.611C185.438 159.192 185.473 158.772 185.473 158.352C185.473 157.232 185.508 156.113 185.403 155.028C185.368 154.713 185.438 154.329 185.089 154.084C184.81 154.329 185.089 154.608 184.985 154.853C184.321 154.398 184.321 154.364 184.252 153.489C184.182 152.579 184.217 151.67 184.042 150.83C183.868 150.025 183.798 149.256 183.798 148.451C183.798 147.856 183.938 147.226 183.903 146.632C183.868 146.317 183.938 146.002 183.868 145.652C183.798 145.197 183.763 144.777 183.903 144.323C183.973 144.078 184.042 143.798 183.868 143.518C183.763 143.378 183.798 143.238 183.798 143.098C183.833 142.048 183.833 140.999 183.868 139.949C183.903 139.32 183.798 138.69 183.833 138.06C183.868 137.5 183.833 136.906 183.973 136.346C184.042 136.101 184.077 135.821 183.973 135.611C183.728 135.086 183.833 134.561 183.903 134.072C184.077 132.742 184.042 131.413 183.868 130.118C183.833 129.733 183.903 129.384 183.903 128.999C183.903 128.369 183.624 127.809 183.728 127.179C183.798 126.69 183.728 126.2 183.868 125.71C184.077 124.905 183.833 124.066 183.658 123.296C183.624 123.156 183.624 123.121 183.658 122.981C183.798 122.561 183.938 122.106 183.833 121.652C183.658 120.952 183.868 120.252 183.868 119.552C183.903 118.363 183.693 117.173 183.658 115.984C183.624 115.284 183.589 114.549 183.624 113.85C183.728 112.1 183.693 110.351 183.693 108.602C183.693 107.412 183.833 106.223 183.763 105.033C183.728 104.509 184.077 104.019 183.938 103.494C183.728 102.619 183.903 101.71 183.833 100.835C183.798 100.555 183.763 100.205 183.938 99.9603C184.077 99.7504 184.042 99.5055 184.042 99.2956C184.042 98.386 183.938 97.5113 183.938 96.6017C183.938 96.2168 183.728 96.1469 183.484 96.0419C183.484 95.692 183.938 95.937 183.938 95.6221C183.833 95.4471 183.658 95.4122 183.484 95.4472C182.542 95.6571 181.565 95.692 180.587 95.692C180.378 95.692 180.134 95.6921 179.924 95.762C179.575 95.902 179.226 96.0419 178.843 96.1469C178.878 96.4268 179.122 96.2518 179.227 96.3918C177.272 96.6367 175.458 97.1615 173.643 97.8962C172.561 98.351 171.549 98.9457 170.432 99.2256C169.665 99.4355 169.037 99.9254 168.269 100.135C167.745 100.24 167.327 100.765 166.873 101.115C166.419 101.43 166 101.78 165.407 101.78C165.233 101.78 165.023 101.885 164.884 102.059C164.779 102.164 164.674 102.304 164.57 102.374C163.907 102.654 163.488 103.214 162.964 103.669C161.848 104.613 160.975 105.733 160.033 106.853C159.719 107.202 159.649 107.727 159.37 108.112C159.021 108.602 158.498 108.847 158.218 109.372C158.009 109.721 157.939 110.106 157.59 110.386C157.171 110.701 156.927 111.051 156.892 111.611C156.857 111.961 156.613 112.275 156.369 112.59C156.194 112.835 155.985 113.045 156.02 113.395C156.055 113.78 155.601 113.78 155.462 114.13C155.217 114.794 155.113 115.494 154.729 116.089C154.589 116.264 154.554 116.404 154.31 116.334C154.101 116.264 153.926 116.404 154.101 116.614C154.31 116.859 154.17 116.964 154.031 117.103C153.437 117.733 153.089 118.503 152.705 119.238C152.181 120.182 151.588 121.127 151.169 122.141C150.96 122.701 150.611 123.226 150.471 123.786C150.367 124.171 150.052 124.346 149.948 124.73C149.564 126.06 149.285 127.459 148.831 128.789C148.761 128.964 148.761 129.174 148.587 129.314C148.517 129.384 148.377 129.419 148.447 129.523C148.587 129.908 148.308 130.328 148.412 130.608C148.587 131.063 148.098 131.203 148.098 131.588C148.098 132.112 147.645 132.637 147.784 133.232C147.191 133.617 147.61 134.107 147.575 134.561C147.54 134.946 147.61 135.436 147.296 135.751C147.191 135.891 147.296 135.961 147.296 136.031C147.296 136.451 147.296 136.871 146.912 137.115C146.737 137.22 146.772 137.325 146.842 137.43C147.226 137.92 147.191 138.41 147.051 139.04C146.912 139.669 147.016 140.404 146.807 141.034C146.667 141.524 146.807 141.978 146.842 142.433C146.912 143.098 147.016 143.833 146.633 144.462C146.458 144.742 146.423 145.092 146.458 145.407C146.598 146.212 146.318 147.051 146.737 147.821C146.388 148.311 146.772 148.276 147.086 148.381C147.61 148.556 148.133 148.696 148.691 148.626C148.761 148.626 148.866 148.591 148.901 148.626C149.25 149.116 149.808 148.941 150.297 149.116C150.087 149.326 149.808 149.186 149.494 149.291C150.192 149.57 150.82 149.43 151.379 149.396C151.972 149.396 152.565 149.5 153.123 149.256C152.809 149.535 152.495 149.675 152.077 149.745C151.239 149.85 150.401 150.165 149.529 150.095C149.32 150.06 149.355 150.34 149.215 150.375C149.075 150.41 149.006 150.235 148.866 150.305C149.18 151.04 149.599 151.145 150.262 150.69C150.611 150.445 150.925 150.305 151.413 150.41C152.251 150.585 153.158 150.41 154.031 150.41C154.833 150.41 155.671 150.13 156.474 150.515C156.753 150.655 157.137 150.585 157.555 150.655C156.369 150.795 155.287 151.005 154.17 151.075C152.216 151.215 150.262 151.565 148.308 151.425C147.854 151.39 147.435 151.565 146.982 151.46C146.633 151.39 146.458 151.635 146.458 152.019C146.423 153.209 146.353 154.364 146.353 155.553C146.353 156.043 146.144 156.498 146.249 157.022C146.284 157.162 146.249 157.372 146.039 157.477C145.935 157.547 145.9 157.617 145.969 157.722C146.353 158.317 146.109 158.947 146.004 159.541C145.935 160.031 146.109 160.661 145.551 161.046C145.516 161.081 145.516 161.221 145.551 161.256C146.109 161.746 145.621 162.235 145.516 162.69C145.341 163.39 145.272 164.055 145.237 164.754C145.202 165.314 144.923 165.804 144.853 166.364C144.574 168.148 144.05 169.932 143.876 171.752C143.876 171.891 143.806 172.031 143.701 172.171C143.527 172.381 143.422 172.591 143.387 172.836C143.143 174.166 142.48 175.355 141.991 176.58C141.782 177.104 141.503 177.664 141.503 178.294C141.503 179.099 141.154 179.833 140.735 180.463C140.072 181.478 139.688 182.632 139.165 183.682C138.641 184.696 137.978 185.606 137.35 186.551C136.582 187.67 135.675 188.72 134.977 189.874C134.139 191.274 133.092 192.498 131.941 193.653C131.173 194.457 130.51 195.367 129.603 196.067C129.149 196.417 128.765 196.871 128.312 197.151C127.509 197.641 126.881 198.306 126.218 198.936C126.008 199.146 125.729 199.181 125.485 199.32C124.892 199.705 124.473 200.265 123.845 200.58C123.705 200.65 123.67 200.825 123.6 200.965C123.356 201.455 123.042 201.839 122.449 201.839C122.379 201.839 122.344 201.804 122.309 201.874C122.1 202.504 121.472 202.469 121.018 202.714C120.564 202.994 120.076 203.274 119.657 203.624C119.238 203.974 118.75 204.254 118.296 204.568C117.668 204.953 116.935 205.163 116.307 205.513C114.737 206.318 113.027 206.703 111.456 207.437C109.502 208.312 107.478 209.012 105.419 209.606C104.198 209.956 102.976 210.376 101.755 210.691C100.08 211.111 98.3698 211.391 96.6947 211.671C95.2639 211.915 93.8331 212.055 92.4024 212.23C91.8091 212.3 91.2159 212.37 90.6226 212.23C90.5179 212.195 90.3434 212.195 90.2387 212.23C89.2267 212.79 88.0751 212.335 87.0282 212.65C86.6094 212.755 86.1209 212.86 85.7719 212.37C85.7021 212.265 85.388 212.3 85.4229 212.44C85.4927 212.965 85.1089 212.825 84.8995 212.825C84.3062 212.86 83.713 212.895 83.0848 213C83.1895 212.825 83.2244 212.58 83.5036 212.615C83.7479 212.65 83.9573 212.615 84.1317 212.37C83.8526 212.16 83.5734 212.265 83.3291 212.37C82.9452 212.545 82.5614 212.65 82.1426 212.37C81.8983 212.23 81.5842 212.23 81.2702 212.335C80.991 212.44 80.7467 212.37 80.5373 211.985C80.991 212.02 81.2702 211.775 81.5842 211.601C82.0728 211.321 82.6312 211.181 83.2244 211.111C83.9224 211.006 84.4807 210.691 85.1089 210.446C85.2135 210.411 85.2833 210.341 85.2484 210.236C85.2136 209.991 85.2135 209.956 85.388 209.991C85.9464 210.061 86.3652 209.641 86.8537 209.501C86.7141 209.222 86.4698 209.187 86.2256 209.117C85.7719 208.977 85.6323 208.662 85.8766 208.277C86.0162 208.067 86.1907 207.857 86.4698 207.752C86.9933 207.577 87.5168 207.472 87.8657 206.947C87.9704 206.772 88.2496 206.842 88.4241 206.842C89.1918 206.912 89.7153 206.283 90.4481 206.213C90.483 206.213 90.5528 206.143 90.5528 206.108C90.6226 205.268 91.3554 205.408 91.844 205.338C93.5889 205.093 95.3686 204.918 97.1135 204.708C97.5322 204.638 98.0208 204.638 98.3349 204.254C98.4047 204.184 98.5792 204.114 98.6839 204.149C99.2771 204.254 99.8355 203.869 100.429 203.904C100.603 203.904 100.847 203.869 100.987 203.729C101.196 203.519 101.476 203.484 101.755 203.519C101.859 203.519 101.999 203.554 102.034 203.519C102.557 203.134 103.22 203.239 103.744 202.924C104.616 202.364 105.698 202.364 106.606 201.909C107.513 201.455 108.525 201.21 109.362 200.65C109.711 200.44 110.095 200.335 110.444 200.16C111.037 199.915 111.386 199.355 111.98 199.076C112.294 198.936 112.573 198.656 112.992 198.726C113.061 198.726 113.201 198.691 113.201 198.656C113.341 197.991 114.143 198.201 114.422 197.746C114.527 197.571 114.806 197.746 114.876 197.711C115.434 197.466 116.063 197.291 116.412 196.662C116.621 196.312 117.075 196.102 117.459 195.892C118.994 194.982 120.564 194.108 122.065 193.128C123.007 192.498 123.914 191.764 124.717 190.959C124.996 190.679 125.38 190.504 125.694 190.294C125.764 190.224 125.904 190.189 125.973 190.189C126.881 190.644 127.265 189.804 127.579 189.384C128.695 187.985 130.056 186.83 131.034 185.361C131.731 184.312 132.569 183.332 133.232 182.247C133.546 181.758 133.86 181.268 134.209 180.848C135.047 179.833 135.5 178.609 135.919 177.384C136.024 177.104 136.094 176.755 135.919 176.44C135.535 176.65 135.465 176.964 135.465 177.349C135.465 177.594 135.291 177.944 135.186 177.909C134.977 177.804 134.558 177.944 134.488 177.594C134.384 177.174 134.279 177.279 134.07 177.524C133.965 177.664 133.86 177.769 133.721 177.629C133.546 177.454 133.581 177.314 133.79 177.139C134.349 176.685 134.698 176.335 135.047 176.055C134.977 176.265 134.872 176.44 134.802 176.65C134.768 176.72 134.837 176.79 134.907 176.79C134.977 176.825 135.047 176.755 135.082 176.685C135.151 176.475 135.012 176.265 135.047 176.055ZM129.952 188.37C131.034 187.565 131.766 186.446 132.639 185.396C133.232 184.696 133.721 183.857 134.349 183.157C134.733 182.737 134.977 182.142 135.221 181.618C135.361 181.338 135.326 180.988 135.221 180.533C134.907 181.058 134.349 181.338 134.244 181.758C133.965 182.702 133.267 183.402 132.918 184.312C132.709 184.801 132.36 185.291 131.836 185.641C131.138 186.061 130.929 186.935 130.266 187.39C130.231 187.425 130.231 187.53 130.231 187.6L130.266 187.565C129.638 187.95 129.079 188.37 128.8 189.105C129.498 189.21 129.812 189.14 129.847 188.51C129.882 188.44 129.917 188.405 129.952 188.37ZM152.321 108.952C152.321 108.672 152.46 108.427 152.67 108.217C153.019 107.902 153.089 107.342 153.577 107.132C153.752 106.258 154.624 105.943 155.113 105.278C155.462 104.823 155.985 104.474 156.334 103.984C156.753 103.424 157.241 102.899 157.835 102.444C157.974 102.339 158.114 102.199 157.974 101.99C157.695 102.059 157.451 102.269 157.241 102.479C156.508 103.319 155.706 104.089 154.833 104.788C154.554 105.033 154.24 105.243 154.17 105.698C154.135 105.908 153.961 106.153 153.717 106.258C153.298 106.468 153.089 106.888 152.809 107.237C152.181 108.007 151.832 108.987 150.925 109.512C150.82 109.581 150.82 109.686 150.855 109.791C150.925 109.896 150.96 110.001 150.855 110.106C150.367 110.561 150.157 111.191 149.808 111.751C149.389 112.38 148.831 112.94 148.691 113.675C148.552 114.34 148.203 114.864 147.889 115.424C147.784 115.599 147.645 115.739 147.575 115.949C146.842 117.838 145.76 119.552 145.097 121.477C144.888 122.106 144.678 122.736 144.504 123.366C144.504 123.401 144.539 123.541 144.574 123.541C144.609 123.576 144.748 123.541 144.783 123.506C144.888 123.436 144.992 123.331 144.992 123.191C145.132 122.456 145.586 121.792 145.76 121.057C145.935 120.392 146.249 119.727 146.528 119.133C147.086 118.013 147.575 116.859 148.168 115.739C148.308 115.459 148.377 115.179 148.552 114.934C149.04 114.27 149.459 113.605 149.634 112.8C149.669 112.695 149.704 112.52 149.773 112.485C150.157 112.345 150.332 111.996 150.506 111.681C150.681 111.366 151.03 111.436 151.274 111.296C151.623 111.051 151.03 110.666 151.413 110.421C151.658 110.246 151.728 109.931 151.832 109.686C152.181 109.546 152.391 109.337 152.321 108.952ZM137.245 176.335C136.826 176.51 136.792 176.72 136.722 176.859C136.373 177.524 136.303 178.294 135.78 178.854C135.605 179.029 135.675 179.274 135.78 179.518C136.408 178.609 136.792 177.559 137.245 176.335ZM128.905 189.594C128.416 189.454 128.207 189.839 127.893 189.944C127.788 189.979 127.788 190.084 127.823 190.189C127.858 190.259 127.928 190.259 128.032 190.259C128.416 190.189 128.626 189.944 128.905 189.594ZM190.254 85.5111C190.149 85.5461 190.045 85.5461 190.045 85.6511C190.045 85.791 190.149 85.756 190.254 85.756C190.359 85.756 190.463 85.756 190.463 85.6161C190.463 85.5111 190.359 85.4761 190.254 85.5111ZM135.64 179.938C135.57 179.938 135.5 179.973 135.465 180.043C135.431 180.113 135.396 180.183 135.5 180.218C135.57 180.253 135.64 180.183 135.675 180.113C135.71 180.043 135.71 179.973 135.64 179.938Z" fill="#222222"/>
<path d="M91.9138 69.9424C91.6346 70.5022 91.5997 71.0969 91.5997 71.6917C91.6346 72.4964 91.4601 73.266 91.5648 74.0707C91.5648 74.1757 91.5648 74.4206 91.3205 74.3506C91.181 74.3156 91.0763 74.2107 91.0763 74.0357C91.1112 72.9512 90.9716 71.8666 91.181 70.782C91.2857 70.2922 91.1461 69.7674 91.1112 69.2776C91.0065 67.7732 91.0763 66.2688 90.9716 64.7994C90.832 62.6653 90.9367 60.4962 90.9367 58.362C90.9367 56.8226 90.7971 55.2833 90.8669 53.7089C90.9716 51.05 90.832 48.391 90.832 45.7321C90.832 44.1927 90.7622 42.6533 90.7971 41.1139C90.8669 38.2801 90.8669 35.4112 90.9367 32.5774C90.9367 32.2275 91.0763 31.8077 90.5877 31.6327C90.483 31.5978 90.4481 31.3878 90.5179 31.2829C90.7971 30.7231 90.6575 30.3732 90.0991 30.0934C89.8549 29.9534 89.9596 29.7785 90.2038 29.6036C90.5528 29.3587 90.9018 29.2887 91.2857 29.3237C91.495 28.9038 91.1461 28.554 91.2857 28.1341C91.9487 28.414 92.6466 28.554 93.3446 28.6239C93.7982 28.6589 94.2868 28.7639 94.7056 28.554C94.8452 28.484 95.0196 28.449 95.1592 28.484C95.8921 28.6239 96.6598 28.379 97.3927 28.3441C97.951 28.3091 98.5792 28.414 99.1375 28.2391C99.2771 28.2041 99.4516 28.2041 99.5563 28.3091C99.661 28.379 99.7657 28.449 99.9053 28.414C100.708 28.2041 101.476 28.6589 102.278 28.589C103.081 28.484 103.918 28.6589 104.756 28.6939C105.838 28.7289 106.954 28.8339 108.036 28.7989C108.804 28.7639 109.572 28.8339 110.34 28.7289C110.374 28.7289 110.444 28.7289 110.479 28.7289C111.142 29.0788 111.77 28.7289 112.433 28.7289C113.096 28.7289 113.794 28.6589 114.457 28.6589C115.12 28.6239 115.818 28.6239 116.481 28.589C117.144 28.554 117.807 28.589 118.471 28.3441C118.854 28.2041 119.378 28.2391 119.832 28.2741C120.634 28.3441 121.402 28.2391 122.205 28.2391C122.344 28.2391 122.519 28.1691 122.554 28.2391C123.007 29.0088 123.6 28.2391 124.124 28.379C124.194 28.414 124.368 28.3441 124.368 28.2741C124.543 27.7143 124.996 27.9592 125.38 27.9242C127.788 27.6443 130.161 28.2041 132.569 28.1691C135.361 28.1341 138.118 28.1341 140.909 28.0992C141.328 28.0992 141.747 27.9592 142.131 27.7843C142.375 27.6793 142.445 27.5044 142.48 27.1196C142.654 27.9242 142.724 27.9942 143.282 27.8193C143.701 27.7143 144.12 27.6793 144.539 27.6094C144.713 27.5744 144.992 27.5744 144.992 27.3994C144.992 26.8047 145.655 26.5598 145.655 26C145.76 26.035 145.83 26.035 145.83 26.035C145.76 26.9446 146.493 27.5744 146.702 28.414C146.912 28.0642 146.807 27.6793 146.842 27.2945C146.877 26.9796 146.702 26.6297 147.191 26.5248C147.365 26.4898 147.226 26.2449 147.33 26.035C147.33 27.0146 147.749 27.8892 147.435 28.7989C147.4 28.8688 147.435 29.0788 147.47 29.0788C148.098 29.2187 147.749 29.6735 147.714 29.9534C147.61 31.1779 147.645 32.4024 147.679 33.6269C147.749 35.4462 147.61 37.2655 147.261 39.0848C147.121 39.8195 147.016 40.5542 146.737 41.2539C146.458 42.0236 146.214 42.8632 146.318 43.7379C146.388 44.3676 146.039 44.9274 145.935 45.5572C145.76 46.6417 145.586 47.7263 145.376 48.8109C145.272 49.3356 145.062 49.7905 144.923 50.3152C144.783 50.98 144.504 51.6447 144.26 52.2745C144.19 52.4494 144.225 52.6243 144.085 52.7643C143.457 53.394 143.352 54.2687 143.143 55.1083C143.073 55.3882 143.038 55.6681 142.899 55.878C142.201 56.8926 141.956 58.1171 141.607 59.2717C141.572 59.3416 141.572 59.4466 141.538 59.4816C140.875 59.8314 140.979 60.6361 140.56 61.1609C140.211 61.5457 140.107 62.1405 140.002 62.5953C139.723 64.1697 138.885 65.4642 138.257 66.8986C137.594 68.368 136.792 69.7674 135.78 71.0269C135.291 71.6567 134.698 72.1815 134.07 72.6713C133.511 73.1261 133.162 73.7908 132.778 74.4206C132.639 74.6655 132.499 74.8754 132.29 75.0503C131.662 75.5401 131.103 76.1349 130.545 76.7297C130.44 76.8346 130.301 76.9396 130.196 76.9746C129.847 77.0445 129.638 77.1845 129.673 77.5693C129.673 77.7093 129.638 77.8492 129.498 77.8842C128.521 78.1291 127.997 78.8988 127.369 79.5635C127.16 79.7734 126.951 79.9484 126.671 80.0883C126.183 80.3332 125.764 80.6481 125.415 81.1029C125.031 81.6277 124.927 82.3274 124.298 82.7123C124.124 82.8172 124.019 83.0621 124.229 83.342C126.183 82.1875 127.823 80.6481 129.498 79.1437C129.393 79.5635 129.114 79.8784 128.8 80.1233C128.381 80.4032 128.067 80.788 127.683 81.1029C126.706 81.9076 125.973 82.9572 125.136 83.8668C124.822 84.2167 124.438 84.5665 124.124 84.9164C122.868 86.1759 121.367 87.0505 119.936 88.0651C118.087 89.3596 116.098 90.3392 114.004 91.1789C112.922 91.5987 112.015 92.2284 111.072 92.8582C110.863 92.9981 110.688 93.243 110.549 92.7882C110.444 92.4383 110.165 92.6833 109.991 92.7532C109.223 93.0681 108.455 93.348 107.687 93.5929C106.152 94.0827 104.616 94.4675 103.046 94.8174C102.208 94.9923 101.441 95.4122 100.603 95.5171C99.1724 95.6921 97.7416 96.0069 96.3108 96.0419C95.578 96.0769 94.8452 96.2168 94.1123 96.3218C93.9029 96.3568 93.7285 96.3568 93.5191 96.3568C92.9258 96.3568 92.9258 96.3568 92.542 96.8116C91.8789 96.1819 91.8091 96.1818 91.1112 96.7766C90.9716 96.8816 90.8669 96.9515 90.7273 96.7766C90.483 96.4967 90.0642 96.4967 89.82 96.5667C89.0173 96.8116 88.2147 96.6717 87.447 96.8116C87.0631 96.8816 86.6792 96.9515 86.2954 97.0915C85.6323 97.3364 84.8995 97.3714 84.1666 97.3014C82.9452 97.2314 81.7238 97.2664 80.5024 97.2314C79.2112 97.1964 77.92 97.5463 76.6288 97.1964C76.1752 97.0915 75.6866 97.3014 75.233 97.2664C73.5579 97.1615 71.8828 97.0565 70.2078 97.0565C69.1609 97.0565 68.079 97.1265 67.0321 97.0565C66.4389 97.0215 65.8456 96.9166 65.2524 96.9515C64.694 96.9865 64.1357 97.0215 63.5424 96.9865C62.4955 96.9166 61.4835 97.0215 60.4715 97.0215C59.285 97.0215 58.0985 97.1964 56.9468 97.2664C56.0744 97.3364 55.1671 97.3014 54.2947 97.3014C53.8061 97.3014 53.3524 97.3364 52.8639 97.4064C51.9566 97.5463 51.0841 97.3364 50.1768 97.3014C50.1419 97.3014 50.0721 97.2314 50.0372 97.2314C49.0601 97.7562 47.9085 96.9515 47.0012 97.6862C46.9314 97.7212 46.8965 97.8262 46.8267 97.7212C46.3032 97.0915 45.4657 97.3714 44.8724 97.0215C44.5584 96.8466 44.3141 96.7066 44.5235 96.2868C44.5933 96.1469 44.6281 95.9369 44.4537 95.797C43.9302 95.4122 44.0698 94.8874 44.1396 94.3976C44.1396 94.3276 44.2094 94.2576 44.2094 94.1877C44.2094 93.383 44.4188 92.5783 44.663 91.8086C44.6979 91.6687 44.8026 91.5287 44.663 91.3888C44.5235 91.2838 44.3839 91.1789 44.349 91.0039C44.2792 90.724 44.2094 90.4442 44 90.1293C44.349 90.0593 44.6281 90.1993 44.8375 89.9194C45.0469 89.6745 44.8375 89.3596 45.012 89.1497C45.1865 89.1147 45.0818 89.2546 45.1167 89.3246C45.2214 89.4995 45.1167 89.8494 45.5006 89.7094C45.7798 89.6045 45.8844 89.2546 45.71 89.1147C45.3261 88.7298 45.5006 88.275 45.4308 87.8552C45.3959 87.5403 45.5704 87.4703 45.8147 87.4354C45.9891 87.4354 46.1636 87.4004 46.3381 87.4354C47.7689 87.6453 49.2346 87.5403 50.6654 87.6453C51.6425 87.7152 52.6196 87.6453 53.6316 87.7152C54.19 87.7502 54.7832 87.7502 55.3416 87.6103C55.7603 87.5053 56.214 87.6453 56.6677 87.5753C57.1562 87.5053 57.7146 87.4703 58.2031 87.6103C58.8662 87.7852 59.4943 87.6803 60.1574 87.7502C60.3668 87.7852 60.5762 87.7852 60.7157 87.8902C60.9251 88.0651 61.0996 88.1701 61.3439 87.8902C61.4486 87.7502 61.6929 87.7502 61.7627 87.8202C62.3908 88.38 63.1585 87.9252 63.8216 88.2051C64.1008 88.31 64.2753 88.2051 64.4846 87.9951C64.7987 87.6453 65.1826 87.6103 65.5664 87.8202C65.9154 87.9951 66.2644 88.0651 66.5785 87.9252C66.9274 87.7502 67.1368 88.1001 67.4858 88.0651C68.777 87.9252 70.0682 87.9252 71.3943 87.8552C71.5339 87.8552 71.7083 87.8202 71.7781 87.8902C72.2318 88.31 72.6855 88.1001 73.1391 87.9951C73.9767 87.7852 74.8142 87.9951 75.6517 87.9951C75.9658 87.9951 76.245 88.0301 76.5591 87.9601C76.8382 87.8902 77.0825 87.8552 77.3268 88.1001C77.5013 88.275 77.7805 88.31 77.9549 88.2051C78.3737 87.9601 78.7227 88.0651 79.1065 88.24C79.4206 88.38 79.6998 88.415 79.9092 88.1001C80.0139 87.9602 80.1535 87.8202 80.2582 87.9601C80.5373 88.31 80.991 88.1701 81.3051 88.415C81.6191 88.6249 82.1426 88.5549 82.5265 88.345C82.6661 88.275 82.7707 88.1001 82.9103 88.1701C83.6432 88.5199 84.4458 88.2051 85.3182 88.38C84.9693 88.5199 84.7599 88.4849 84.5156 88.4849C84.2364 88.4849 83.9573 88.4849 83.6781 88.5199C83.5734 88.5199 83.5036 88.5899 83.5036 88.7298C83.5036 88.8348 83.6083 88.9398 83.6781 88.9048C83.9573 88.8348 84.2713 89.0797 84.4807 88.8698C84.8995 88.45 85.3182 88.6249 85.6672 88.8348C85.9813 89.0097 86.2605 89.0097 86.5745 88.8348C87.0282 88.5899 87.447 88.4849 87.9006 88.8348C88.1449 89.0097 88.1449 88.9398 88.6335 88.6949C88.5288 88.415 88.1449 88.6599 88.0053 88.345C88.7033 88.38 89.4012 88.415 90.0643 88.45C90.832 88.4849 91.0414 88.275 91.0414 87.5753C91.0763 86.2458 91.0763 84.8814 91.0763 83.5519C91.0763 83.412 91.1112 83.307 91.2508 83.307C91.4601 83.307 91.495 83.447 91.5997 83.6219C92.0883 84.5315 92.0883 85.4761 92.0534 86.4557C92.0185 87.0855 92.0534 87.6803 92.0534 88.415C92.7164 88.1001 92.6117 87.5403 92.6117 87.1555C92.5768 86.5607 92.5071 86.0009 92.7164 85.4412C92.7164 85.4062 92.7513 85.3362 92.7164 85.3012C92.4024 84.3916 92.8211 83.5169 92.856 82.6423C92.8909 80.6831 92.9607 78.7239 92.8211 76.7297C92.7862 75.9949 92.7164 75.2253 92.542 74.5255C92.5071 74.4206 92.5768 74.2806 92.6117 74.1757C92.6466 73.8608 92.7164 73.5109 92.5768 73.2311C92.2279 72.4614 92.193 71.6567 92.3675 70.852C92.2628 70.4322 91.9138 70.2572 91.9138 69.9424ZM123.496 83.7968C123.147 83.6919 122.868 83.8318 122.588 84.0067C121.472 84.7414 120.529 85.721 119.308 86.4557C119.866 86.5257 120.076 86.4208 120.564 86.1059C121.262 85.6861 121.786 85.0563 122.519 84.7065C122.972 84.5315 123.286 84.2167 123.496 83.7968C123.566 83.8318 123.67 83.8318 123.775 83.7968C123.88 83.7268 124.054 83.6919 123.949 83.5519C123.88 83.412 123.705 83.4819 123.635 83.5519C123.566 83.6219 123.531 83.7268 123.496 83.7968ZM137.908 42.0236C137.524 42.1285 137.455 42.4434 137.455 42.7933C137.455 43.563 137.35 44.3326 137.245 45.0674C137.036 46.4318 137.036 47.8312 136.652 49.1957C136.652 49.1957 136.722 49.2307 136.792 49.2657C137.699 46.9566 137.873 44.5076 137.908 42.0236C137.804 41.8137 138.083 41.5338 137.804 41.2889C137.629 41.6387 137.804 41.8137 137.908 42.0236ZM137.106 37.6153C136.861 37.4754 136.966 37.1955 136.966 37.0206C136.931 35.971 136.931 35.971 135.884 36.006C135.849 36.006 135.849 36.006 135.814 36.006C134.419 36.006 133.023 36.076 131.627 36.041C130.824 36.041 130.021 35.901 129.219 36.1459C128.87 36.2509 128.521 36.2509 128.172 36.1459C127.509 35.971 126.846 36.041 126.183 36.041C123.845 36.076 121.507 36.006 119.168 35.866C118.191 35.7961 117.214 35.7611 116.272 35.971C115.783 36.076 115.365 36.1109 114.876 35.971C114.562 35.866 114.108 35.6911 113.864 35.936C113.48 36.2859 113.166 36.1809 112.782 36.006C112.468 35.866 112.015 35.936 111.875 36.076C111.596 36.3908 111.352 36.2159 111.072 36.2859C110.095 36.5308 109.083 36.006 108.106 36.5308C108.001 36.6007 107.862 36.5658 107.722 36.5308C106.501 36.3558 105.279 36.4258 104.058 36.3558C102.418 36.2509 100.743 36.2509 99.1026 36.1809C98.3 36.1459 98.2302 36.1809 98.1604 36.9856C98.1604 37.0206 98.1255 37.0906 98.1604 37.1255C98.4745 38.5949 98.0208 40.0294 97.9859 41.4988C97.951 43.9128 97.9161 46.3268 97.951 48.7409C97.9859 50.5252 97.9161 52.3094 98.0557 54.1287C98.0906 54.6185 97.8812 55.0384 97.8812 55.5282C97.951 57.2425 97.9161 58.9568 97.8114 60.6361C97.7765 60.986 98.0208 61.2309 97.8812 61.5807C97.6718 62.1405 98.0208 62.7703 97.8114 63.33C98.1255 64.3446 97.8463 65.3592 97.8463 66.3738C97.8463 66.8286 97.8463 67.2834 97.8463 67.7033C97.8463 68.6829 97.8114 69.6975 97.8463 70.6771C97.9161 71.9716 98.0557 73.266 97.8812 74.5605C97.8114 75.1553 97.9161 75.75 97.8812 76.3798C97.8114 77.2195 97.7416 78.0591 97.9161 78.9338C98.1255 79.9484 97.9859 80.9979 98.0557 82.0475C98.1604 83.8668 98.0906 85.6861 98.1255 87.5053C98.1255 87.6803 98.0208 87.8902 98.1604 87.9951C98.3698 88.1701 98.3698 88.24 98.1604 88.45C98.0208 88.5899 97.951 88.8698 98.0906 89.0797C98.1953 89.2546 98.4047 89.1497 98.5792 89.1497C100.533 89.0447 102.418 88.45 104.372 88.2051C105.07 88.1351 105.733 87.8202 106.431 87.7152C107.897 87.5053 109.293 86.9106 110.619 86.2808C110.758 86.2108 110.863 86.1059 110.933 85.966H110.898C111.037 86.0709 111.142 86.1409 111.352 85.966C111.666 85.721 112.015 85.4761 112.468 85.6161C112.049 85.861 111.7 86.1759 111.317 86.4907C111.7 86.4558 112.119 86.3858 112.433 86.2108C113.794 85.4062 115.26 84.7414 116.621 83.9368C118.261 82.9572 119.832 81.8726 121.297 80.6481C121.507 80.4732 121.716 80.2282 122.065 80.3332C121.507 80.753 121.123 81.3128 120.46 81.9076C121.262 81.7676 121.89 81.6277 122.344 81.1029C122.833 80.6131 123.356 80.1233 123.74 79.5635C123.81 79.4586 123.845 79.3186 124.019 79.3536C124.438 79.4586 124.647 79.1437 124.892 78.8988C125.624 78.1641 126.357 77.4294 127.09 76.6597C127.439 76.2748 127.718 75.82 128.137 75.5051C128.207 75.4352 128.242 75.2602 128.137 75.1553C128.032 75.0503 127.893 75.0853 127.788 75.1553C127.509 75.3652 127.23 75.5751 127.02 75.855C126.846 76.1349 126.671 76.4148 126.218 76.4498C126.846 75.6101 127.544 74.9454 128.137 74.1757C129.079 72.9162 130.091 71.6917 130.964 70.3622C131.138 70.1173 131.173 69.8024 131.278 69.5225C131.348 69.3476 131.243 69.1727 131.068 69.1027C130.894 69.0327 130.789 69.1727 130.685 69.2776C130.58 69.4526 130.37 69.6975 130.405 69.8724C130.44 70.5721 129.777 70.6421 129.498 71.0619C129.463 71.0969 129.358 71.0969 129.289 71.0619C129.219 71.0269 129.219 70.957 129.254 70.852C129.324 70.6421 129.568 70.6071 129.638 70.3972C129.882 69.5925 130.615 68.9978 130.615 68.0531C131.138 67.4934 131.173 66.7587 131.417 66.0939C131.976 64.5895 132.464 63.0851 133.058 61.6157C133.232 61.1259 133.581 60.7061 133.651 60.1813C133.79 59.2367 134.384 58.432 134.523 57.4874C134.663 56.6127 135.151 55.808 135.326 54.9334C135.361 54.7935 135.465 54.6185 135.361 54.5136C135.082 54.1987 135.221 53.9538 135.465 53.6739C135.675 53.429 135.745 53.1491 135.745 52.8342C135.78 52.5544 135.814 52.3094 135.884 52.0296C136.129 50.8051 136.303 49.5805 136.408 48.356C136.443 47.9712 136.338 47.5514 136.303 47.1665C136.303 46.7817 136.512 46.5018 136.512 46.1869C136.477 45.4522 136.652 44.7525 136.722 44.0528C136.826 43.3181 137.141 42.6183 136.757 41.8836C136.722 41.8137 136.757 41.6737 136.792 41.6037C137.036 41.2539 137.106 40.939 136.861 40.5192C136.722 40.3093 136.861 39.6445 136.966 39.6095C137.385 39.4696 137.071 40.0644 137.35 40.1693C137.385 40.1693 137.385 40.1693 137.455 40.1693C137.594 40.0294 137.524 39.8195 137.559 39.6445C137.908 38.5949 137.629 37.5104 137.664 36.4258C137.664 36.2509 137.594 36.076 137.35 36.076C137.071 36.076 137.001 36.2509 137.036 36.4608C137.036 36.6707 137.106 36.8457 137.106 37.0556C137.245 37.2305 137.42 37.4754 137.106 37.6153ZM89.8549 89.1147C89.9596 89.1147 90.0992 89.1147 90.2038 89.0797C90.3434 89.0447 90.5179 89.0447 90.483 88.8348C90.4481 88.6949 90.3085 88.6249 90.2038 88.6599C89.7851 88.7298 89.3663 88.6599 88.9475 88.6599C88.8428 88.6599 88.7382 88.6949 88.7382 88.7998C88.7382 88.9398 88.808 89.0797 88.9475 89.0447C89.2616 88.9747 89.5757 89.1147 89.8549 89.1147Z" fill="#222222"/>
<path d="M91.9138 117.593C90.8669 117.838 89.7851 117.803 88.7382 117.908C89.5059 118.398 90.3085 118.048 91.0763 118.048C90.9716 118.363 90.6575 118.293 90.4481 118.293C89.7502 118.293 89.0871 118.293 88.3892 118.398C89.8898 118.608 91.4252 118.608 92.9258 119.063C92.8909 119.378 92.856 119.797 93.4842 119.727C93.5889 119.727 93.6936 119.832 93.7983 119.902C93.9029 119.972 94.0425 120.042 94.0076 120.182C93.9727 120.357 93.7982 120.357 93.6587 120.357C93.3446 120.357 92.9956 120.357 92.6815 120.462C92.542 120.497 92.3675 120.567 92.4373 120.777C92.4722 120.917 92.6118 120.917 92.7513 120.917C93.4493 120.847 94.1472 121.022 94.8801 121.127C94.2868 121.232 93.6936 121.372 93.1003 121.407C92.2977 121.477 91.5299 121.827 90.6924 121.897C90.5528 121.897 90.483 122.001 90.4481 122.141C90.4132 122.316 90.2736 122.351 90.1689 122.316C89.5059 122.141 89.0871 122.736 88.4939 122.841C89.6804 123.401 90.9367 122.946 92.1581 123.016C92.193 123.156 92.1232 123.226 92.0185 123.226C91.2508 123.191 90.5877 123.786 89.82 123.681C89.7153 123.681 89.7153 123.821 89.6455 123.891C89.3314 124.136 89.0522 124.451 88.5986 124.101C88.459 123.996 88.2496 124.031 88.1798 124.136C87.9704 124.52 87.6912 124.485 87.3423 124.381C87.2027 124.346 87.0282 124.346 86.8886 124.416C86.5047 124.625 86.086 124.695 85.6672 124.555C85.5625 124.52 85.3531 124.485 85.3182 124.555C84.725 125.29 84.027 124.765 83.364 124.765C83.2593 124.765 83.1895 124.695 83.0848 124.765C82.5614 125.045 82.0379 124.94 81.4796 124.835C80.991 124.73 80.4675 124.87 79.9441 124.835C79.5951 124.8 79.2461 124.835 78.967 124.555C78.8623 124.451 78.6878 124.346 78.5831 124.381C77.9898 124.59 77.4315 124.241 76.8382 124.416C76.6288 124.485 76.4544 124.485 76.245 124.451C75.3028 124.241 74.3256 124.206 73.3485 124.451C72.5459 124.625 71.7432 124.381 70.9755 124.486C69.9286 124.625 68.8817 124.241 67.8348 124.346C67.416 124.381 66.9274 124.311 66.5087 124.171C65.706 123.926 64.9383 124.031 64.1357 124.171C63.8565 124.206 63.6122 124.276 63.333 124.101C63.0887 123.961 62.7747 123.961 62.5304 124.031C61.9022 124.206 61.2741 124.066 60.6459 124.101C60.0178 124.136 59.3199 123.891 58.7266 124.346C58.6917 124.381 58.5521 124.381 58.5172 124.381C57.8891 124.031 57.1911 124.346 56.5281 124.276C55.9697 124.206 55.3416 124.171 54.7483 124.346C54.5389 124.416 54.2947 124.416 54.0853 124.416C52.9337 124.311 51.817 124.486 50.6654 124.66C49.8976 124.765 49.095 124.87 48.3621 125.15C47.8387 125.36 47.3152 124.975 46.8267 124.8C46.5475 124.695 46.2683 124.52 46.0589 124.346C45.8495 124.171 45.6402 124.031 45.3261 124.066C45.1167 124.101 44.8375 124.031 44.8375 123.716C44.8375 123.506 44.663 123.191 45.0469 123.086C45.1865 123.051 45.2563 122.946 45.1865 122.806C45.0469 122.526 45.1865 122.141 45.0818 122.001C44.7677 121.617 44.9771 121.232 44.9771 120.847C45.012 120.252 44.9771 119.657 44.9073 119.063C44.8724 118.713 44.8026 118.363 44.5235 118.118C44.2792 117.908 44.3141 117.558 44.0349 117.348C44.3141 117.173 44.4537 117.523 44.663 117.453C44.7328 117.383 44.7677 117.278 44.7328 117.173C44.5235 116.719 44.5584 116.439 45.0818 116.299C45.361 116.229 45.0818 115.914 45.2563 115.774C45.71 116.019 46.2334 116.019 46.6522 116.369C46.8616 116.544 47.1058 116.474 47.1407 116.159C47.1407 116.019 47.1407 115.844 47.1407 115.704C47.2105 115.704 47.2803 115.669 47.3152 115.704C48.083 116.439 48.083 116.509 49.1299 116.404C49.9325 116.334 50.7352 116.404 51.5029 116.474C52.2008 116.544 52.8988 116.439 53.5967 116.509C55.0973 116.649 56.6328 116.509 58.1334 116.614C60.4366 116.754 62.7049 116.649 65.0081 116.789C67.3811 116.929 69.7541 116.754 72.0922 116.894C73.2438 116.964 74.4303 117.033 75.6168 116.859C76.0356 116.789 76.5242 116.929 76.9778 116.929C79.0019 116.929 81.0259 116.964 83.0499 116.929C84.3062 116.894 85.5625 117.173 86.8188 117.278C88.3543 117.383 89.8549 117.418 91.3903 117.418C91.5648 117.418 91.8091 117.313 91.9138 117.593Z" fill="#222222"/>
<path d="M90.7273 67.2834C90.134 66.8636 90.2038 66.3038 90.2387 65.814C90.2736 65.1493 90.2038 64.5196 90.2038 63.8898C90.2038 62.7003 90.1689 61.5108 90.134 60.3212C90.0991 59.1667 90.134 57.9772 90.0991 56.8226C90.0643 55.4582 90.134 54.0937 90.134 52.7293C90.134 51.4698 90.134 50.2453 90.134 48.9858C90.134 47.7613 90.134 46.5368 90.134 45.3472C90.134 44.9974 89.9945 44.6475 90.0294 44.2977C90.0294 44.0877 90.0643 43.9128 90.3085 43.7379C90.5179 44.0877 90.5528 44.4726 90.5528 44.8225C90.5877 47.6213 90.5877 50.4202 90.6226 53.2191C90.6226 54.8284 90.6924 56.4378 90.5179 58.0122C90.3783 59.0967 90.5528 60.1813 90.5528 61.2309C90.5179 62.3154 90.5877 63.435 90.6575 64.5196C90.6924 65.3592 90.6575 66.2689 90.7273 67.2834Z" fill="#222222"/>
<path d="M134.558 178.644C134.104 180.008 128.591 187.74 127.509 188.51C127.858 188.02 128.032 187.6 128.207 187.18C128.626 186.201 129.358 185.466 129.952 184.591C130.475 183.822 131.068 183.122 131.557 182.352C132.22 181.268 133.127 180.323 133.79 179.239C133.965 178.994 134.384 178.924 134.558 178.644Z" fill="#222222"/>
<path d="M53.3524 145.197C52.4451 145.267 51.5378 145.302 50.6305 145.372C50.1768 145.407 49.8627 145.127 49.4789 145.022C50.4909 145.057 51.5029 145.022 52.48 144.882C52.7941 144.882 53.1082 145.022 53.3524 145.197Z" fill="#222222"/>
<path d="M91.0763 76.3448C91.1112 75.96 91.1112 75.5401 91.1461 75.1203C91.1461 75.0153 91.2508 74.9454 91.3554 74.9454C91.4601 74.9454 91.495 75.0153 91.4601 75.0853C91.3903 75.785 91.4601 76.4498 91.5299 77.1495C91.5299 77.2894 91.5997 77.4993 91.3903 77.4993C91.2159 77.4993 91.0065 77.3944 91.0763 77.1845C91.1461 76.9046 91.0763 76.6597 91.0763 76.3448Z" fill="#222222"/>
<path d="M91.3206 77.8492C91.2508 78.1641 91.3554 78.444 91.4252 78.7239C91.5299 79.1087 91.5299 79.4935 91.4252 79.9134C91.3903 80.0183 91.3205 80.0533 91.2159 80.0883C91.181 80.0883 91.1112 80.0533 91.1112 80.0183C91.1461 79.2836 90.9018 78.5139 91.3206 77.8492Z" fill="#222222"/>
<path d="M90.9367 82.0475C91.0763 81.8726 90.6924 81.4528 91.1112 81.4178C91.6695 81.3478 91.2159 81.8726 91.3903 82.0825C91.5299 82.2224 91.5299 82.4674 91.3903 82.6423C91.3205 82.7472 91.2159 82.8522 91.0763 82.8172C90.9018 82.7822 90.9018 82.6773 90.9018 82.5373C90.9367 82.3974 90.9367 82.2574 90.9367 82.0475Z" fill="#222222"/>
<path d="M91.9138 117.593C92.542 117.278 93.205 117.698 93.8331 117.523C93.9727 117.698 93.7285 117.768 93.7285 117.908C93.7285 118.223 93.3097 118.153 93.2748 118.118C93.0305 117.558 92.5071 117.838 92.1232 117.698C92.0534 117.663 91.9836 117.628 91.9138 117.593Z" fill="#222222"/>
<path d="M122.554 153.314C122.17 153.489 121.751 153.559 121.332 153.349C121.751 153.349 122.135 153.209 122.554 153.314Z" fill="#222222"/>
<path d="M91.2159 81.1379C90.9367 80.893 90.9716 80.6831 91.1461 80.4731C91.2159 80.4032 91.3554 80.4382 91.3903 80.5081C91.5299 80.788 91.3554 80.928 91.2159 81.1379Z" fill="#222222"/>
<path d="M191.336 153.839C191.301 153.629 191.266 153.454 191.196 153.174C191.545 153.384 191.406 153.629 191.336 153.839Z" fill="#222222"/>
<path d="M89.6455 205.618C89.7502 205.513 89.8898 205.548 90.0294 205.583C90.0992 205.583 90.0992 205.653 90.0643 205.653C89.9247 205.688 89.7851 205.723 89.6455 205.618Z" fill="#222222"/>
<path d="M85.7719 88.24C85.8417 88.24 85.9115 88.2051 85.9813 88.2051C86.0511 88.2051 86.1209 88.2051 86.1558 88.275C86.1209 88.275 86.086 88.31 86.0511 88.31C85.9464 88.275 85.8766 88.275 85.7719 88.24Z" fill="#222222"/>
<path d="M95.927 121.092C95.7874 121.092 95.6827 121.092 95.4035 121.092C95.6827 121.057 95.7874 121.057 95.927 121.022C95.8921 121.057 95.927 121.092 95.927 121.092Z" fill="#222222"/>
<path d="M90.6924 68.298C90.5179 68.1931 90.5179 68.0181 90.483 67.8432C90.832 67.9482 90.6575 68.1581 90.6924 68.298Z" fill="#222222"/>
<path d="M91.0763 118.013C91.2857 118.083 91.4601 118.013 91.6695 118.048C91.4601 118.363 91.2857 118.118 91.0763 118.013Z" fill="#222222"/>
<path d="M91.7393 122.351C91.6695 122.316 91.5299 122.351 91.5648 122.211C91.5648 122.176 91.6346 122.141 91.6695 122.141C91.7742 122.176 91.844 122.211 91.8789 122.316C91.844 122.351 91.8091 122.351 91.7393 122.351Z" fill="#222222"/>
<path d="M153.054 149.256C153.193 149.291 153.333 149.186 153.438 149.326L153.403 149.43C153.228 149.465 153.158 149.291 153.054 149.256Z" fill="#222222"/>
<path d="M129.847 188.51C129.742 188.58 129.638 188.58 129.673 188.44C129.707 188.335 129.847 188.265 129.987 188.37C129.917 188.405 129.882 188.44 129.847 188.51Z" fill="#222222"/>
<path d="M130.196 187.6C130.266 187.565 130.44 187.46 130.44 187.495C130.545 187.6 130.405 187.67 130.336 187.705C130.231 187.775 130.231 187.67 130.196 187.6Z" fill="#222222"/>
<path d="M151.937 109.267C151.902 109.407 151.902 109.581 151.937 109.721C151.832 109.651 151.658 109.721 151.658 109.546C151.658 109.372 151.762 109.302 151.937 109.267Z" fill="#222222"/>
<path d="M110.968 85.896C110.27 85.931 109.642 86.2108 109.013 86.3858C107.932 86.7356 106.885 87.1555 105.803 87.3304C104.616 87.5053 103.5 87.8202 102.278 87.8902C101.301 87.9601 100.289 87.9601 99.312 88.1351C99.2073 88.1351 99.1026 88.1351 98.9979 88.0651C100.01 87.9252 101.057 87.7502 102.069 87.6103C103.43 87.4703 104.756 87.1555 106.117 86.8756C107.513 86.5607 108.874 86.2108 110.235 85.826C110.479 85.826 110.688 85.721 110.968 85.896Z" fill="#222222"/>
<path d="M136.896 38.8049C136.896 38.6649 137.001 38.5949 137.141 38.6299C137.35 38.6649 137.35 38.8399 137.35 38.9798C137.35 39.1197 137.245 39.1897 137.106 39.1897C136.896 39.1197 136.966 38.9448 136.896 38.8049Z" fill="#222222"/>
<path d="M132.08 62.1405C132.22 61.7907 132.29 61.5457 132.429 61.2659C132.464 61.7557 132.464 61.7557 132.08 62.1405Z" fill="#222222"/>
<path d="M132.639 60.7761C132.604 60.4962 132.813 60.4262 132.848 60.2163C132.953 60.4612 132.883 60.6361 132.639 60.7761Z" fill="#222222"/>
<path d="M131.906 63.2251C131.836 63.2601 131.801 63.2251 131.801 63.1901C131.801 63.1201 131.801 63.0501 131.871 63.0152C131.941 62.9802 132.011 63.0152 132.011 63.0851C131.976 63.1201 131.941 63.1901 131.906 63.2251Z" fill="#222222"/>
<path d="M113.48 84.8814C113.41 84.8464 113.41 84.8114 113.41 84.7764C113.445 84.7065 113.445 84.6365 113.55 84.6365C113.585 84.6365 113.62 84.7065 113.62 84.7414C113.585 84.8114 113.55 84.8464 113.48 84.8814Z" fill="#222222"/>
<path d="M137.106 37.6153C137.21 37.7903 137.245 37.9652 137.141 38.2801C136.966 37.9652 137.106 37.7903 137.106 37.6153Z" fill="#222222"/>
</svg>
